<svg xmlns="http://www.w3.org/2000/svg" xmlns:xlink="http://www.w3.org/1999/xlink"><symbol id="download-icon" viewBox="0 0 20 25">
    <polygon points="5,0 15,0 15,15 20,15 10,25 0,15 5,15 5,0"/>
</symbol><symbol id="email-icon" viewBox="0 0 612 612">
<g>
	<g id="Mail">
		<g>
			<path d="M573.75,57.375H38.25C17.136,57.375,0,74.511,0,95.625v420.75c0,21.133,17.136,38.25,38.25,38.25h535.5
				c21.133,0,38.25-17.117,38.25-38.25V95.625C612,74.511,594.883,57.375,573.75,57.375z M554.625,497.25H57.375V204.657
				l224.03,187.999c7.134,5.967,15.874,8.97,24.595,8.97c8.74,0,17.461-3.003,24.595-8.97l224.03-187.999V497.25z M554.625,129.763
				L306,338.379L57.375,129.763V114.75h497.25V129.763z"/>
		</g>
	</g>
</g>
<g>
</g>
<g>
</g>
<g>
</g>
<g>
</g>
<g>
</g>
<g>
</g>
<g>
</g>
<g>
</g>
<g>
</g>
<g>
</g>
<g>
</g>
<g>
</g>
<g>
</g>
<g>
</g>
<g>
</g>
</symbol><symbol id="github-icon" viewBox="0 0 90 90">
<g>
	<path id="Github__x28_alt_x29_" d="M65.709,10.5c1.17,2.657,1.928,7.07,0.797,10.301c4.625,3.949,6.215,13.549,3.982,21.394
		C77.08,42.698,84.932,41.953,90,43.976c-4.738-0.609-11.209-1.804-17.32-1.388c-1.158,0.079-2.873-0.044-2.789,1.585
		c7.074,0.555,14.104,1.16,19.912,2.973c-5.761-0.941-12.754-2.375-19.912-2.574c-2.957,5.835-8.908,8.703-17.123,9.307
		c0.883,1.922,2.574,2.653,2.987,5.744c0.616,4.618-0.964,11.381,0.595,14.459c0.748,1.475,1.967,1.514,2.789,2.775
		c-2.012,2.381-7-0.268-7.568-2.775c-0.973-4.295,1.482-10.953-1.192-13.865c0.188,4.685-1.108,11.264,0.199,15.449
		c0.515,1.646,2.002,2.281,1.593,3.766c-9.352,0.949-5.443-12.104-6.972-19.81c-1.411,0.101-0.791,2.113-0.796,2.972
		c-0.04,7.524,1.54,17.844-6.57,16.838c-0.237-1.582,1.088-2.119,1.593-3.563c1.479-4.233-0.277-10.542,0.401-15.651
		c-3.095,2.334,0.325,10.48-1.593,14.657c-1.105,2.404-4.666,3.45-7.367,2.377c0.352-1.79,2.2-1.501,2.984-3.169
		c1.096-2.324,0.008-5.674,0.399-9.111c-5.729,1.144-10.173-0.166-12.348-3.764c-0.973-1.615-1.214-3.52-2.39-4.951
		c-1.17-1.432-3.04-1.625-3.582-3.563c7.095-1.708,7.367,7.302,13.739,7.524c1.954,0.071,2.97-0.563,4.778-0.988
		c0.506-2.272,1.589-3.967,3.186-5.153c-7.929-1.085-14.477-3.554-17.522-9.504c-7.208,0.354-13.804,1.317-19.913,2.771
		c5.545-2.014,12.384-2.736,19.715-2.973c-0.432-2.596-4.219-1.882-6.57-1.782C8.973,42.781,3.473,43.324,0,43.976
		c5.034-1.795,12.098-1.571,18.918-1.585c-2.086-6.54-1.363-16.929,3.186-20.798C20.815,18.344,21.215,13.03,22.9,10.5
		c5.079,0.228,8.159,2.443,11.35,4.557c3.957-1.125,8.118-1.685,13.54-1.387c2.28,0.126,4.651,1.151,6.369,0.989
		c1.685-0.158,3.542-2.049,5.178-2.771C61.468,10.947,63.271,10.588,65.709,10.5z"/>
</g>
<g>
</g>
<g>
</g>
<g>
</g>
<g>
</g>
<g>
</g>
<g>
</g>
<g>
</g>
<g>
</g>
<g>
</g>
<g>
</g>
<g>
</g>
<g>
</g>
<g>
</g>
<g>
</g>
<g>
</g>
</symbol><symbol id="github-logo" viewBox="0 0 438.549 438.549">
<g>
	<path d="M409.132,114.573c-19.608-33.596-46.205-60.194-79.798-79.8C295.736,15.166,259.057,5.365,219.271,5.365   c-39.781,0-76.472,9.804-110.063,29.408c-33.596,19.605-60.192,46.204-79.8,79.8C9.803,148.168,0,184.854,0,224.63   c0,47.78,13.94,90.745,41.827,128.906c27.884,38.164,63.906,64.572,108.063,79.227c5.14,0.954,8.945,0.283,11.419-1.996   c2.475-2.282,3.711-5.14,3.711-8.562c0-0.571-0.049-5.708-0.144-15.417c-0.098-9.709-0.144-18.179-0.144-25.406l-6.567,1.136   c-4.187,0.767-9.469,1.092-15.846,1c-6.374-0.089-12.991-0.757-19.842-1.999c-6.854-1.231-13.229-4.086-19.13-8.559   c-5.898-4.473-10.085-10.328-12.56-17.556l-2.855-6.57c-1.903-4.374-4.899-9.233-8.992-14.559   c-4.093-5.331-8.232-8.945-12.419-10.848l-1.999-1.431c-1.332-0.951-2.568-2.098-3.711-3.429c-1.142-1.331-1.997-2.663-2.568-3.997   c-0.572-1.335-0.098-2.43,1.427-3.289c1.525-0.859,4.281-1.276,8.28-1.276l5.708,0.853c3.807,0.763,8.516,3.042,14.133,6.851   c5.614,3.806,10.229,8.754,13.846,14.842c4.38,7.806,9.657,13.754,15.846,17.847c6.184,4.093,12.419,6.136,18.699,6.136   c6.28,0,11.704-0.476,16.274-1.423c4.565-0.952,8.848-2.383,12.847-4.285c1.713-12.758,6.377-22.559,13.988-29.41   c-10.848-1.14-20.601-2.857-29.264-5.14c-8.658-2.286-17.605-5.996-26.835-11.14c-9.235-5.137-16.896-11.516-22.985-19.126   c-6.09-7.614-11.088-17.61-14.987-29.979c-3.901-12.374-5.852-26.648-5.852-42.826c0-23.035,7.52-42.637,22.557-58.817   c-7.044-17.318-6.379-36.732,1.997-58.24c5.52-1.715,13.706-0.428,24.554,3.853c10.85,4.283,18.794,7.952,23.84,10.994   c5.046,3.041,9.089,5.618,12.135,7.708c17.705-4.947,35.976-7.421,54.818-7.421s37.117,2.474,54.823,7.421l10.849-6.849   c7.419-4.57,16.18-8.758,26.262-12.565c10.088-3.805,17.802-4.853,23.134-3.138c8.562,21.509,9.325,40.922,2.279,58.24   c15.036,16.18,22.559,35.787,22.559,58.817c0,16.178-1.958,30.497-5.853,42.966c-3.9,12.471-8.941,22.457-15.125,29.979   c-6.191,7.521-13.901,13.85-23.131,18.986c-9.232,5.14-18.182,8.85-26.84,11.136c-8.662,2.286-18.415,4.004-29.263,5.146   c9.894,8.562,14.842,22.077,14.842,40.539v60.237c0,3.422,1.19,6.279,3.572,8.562c2.379,2.279,6.136,2.95,11.276,1.995   c44.163-14.653,80.185-41.062,108.068-79.226c27.88-38.161,41.825-81.126,41.825-128.906   C438.536,184.851,428.728,148.168,409.132,114.573z" fill="#25212d"/>
</g>
<g>
</g>
<g>
</g>
<g>
</g>
<g>
</g>
<g>
</g>
<g>
</g>
<g>
</g>
<g>
</g>
<g>
</g>
<g>
</g>
<g>
</g>
<g>
</g>
<g>
</g>
<g>
</g>
<g>
</g>
</symbol><symbol id="logo-full" viewBox="0 0 334 64"><path fill="#609F5E" d="M34.6 17.8v15.4L0 42.3v-9L28.8 26v-1.3L6.9 18.6V9.7l27.7 8.1z"/><path fill="#E8524D" d="M53.4 32.4L49.2 52h-9.7l11-52h18.6c2.2 0 4.1.3 5.9 1 1.8.7 3.3 1.7 4.5 2.9 1.2 1.2 2.2 2.7 2.9 4.4.7 1.7 1 3.5 1 5.5 0 2.8-.5 5.3-1.4 7.6-.9 2.3-2.3 4.2-4 5.9-1.7 1.6-3.8 2.9-6.2 3.8-2.4.9-5.1 1.3-8.1 1.3H53.4zm2-9.4h9.1c2.5 0 4.6-.7 6.3-2.2s2.5-3.4 2.5-5.8c0-1.8-.6-3.2-1.7-4.2-1.2-1-2.7-1.4-4.6-1.4h-8.7L55.4 23zM110.5 40.8H93.4L88.6 52H78.2L101 0h18.1l1.3 52h-9.7l-.2-11.2zm-13.2-9.3h13.1L110 4.9h-1.3L97.3 31.5zM126.8 51.1L137.6 0h9.8l-9.1 42.6h22.6V52h-34.2v-.9zM177.1 52h-9.8l11.1-52h9.8l-4.5 21.3h1.8L202.2 0h11.4v.9l-19.7 24.6v1.3l12.5 24.6v.6h-10.8l-10.8-21.3h-3.1L177.1 52zM219.3 0h33.9v9.4h-12l-7.1 33.3h12V52h-33.9v-9.4h12l7.1-33.3h-12V0zM278.6 47.1h1.3l10-47.1h9.4l-11.1 52H270l3.5-47.1h-1.3l-10 47.1h-9.3l11-52h18.3l-3.6 47.1z"/><path fill="#F2EFF0" d="M297.2 55.5h36.4V64h-36.4v-8.5z"/></symbol><symbol id="logo-medium" viewBox="0 0 248 64"><path fill="#609F5E" d="M34.6 17.8v15.4L0 42.3v-9L28.8 26v-1.3L6.9 18.6V9.7l27.7 8.1z"/><path fill="#E8524D" d="M53.4 32.4L49.2 52h-9.7l11-52h18.6c2.2 0 4.1.3 5.9 1 1.8.7 3.3 1.7 4.5 2.9 1.2 1.2 2.2 2.7 2.9 4.4.7 1.7 1 3.5 1 5.5 0 2.8-.5 5.3-1.4 7.6-.9 2.3-2.3 4.2-4 5.9-1.7 1.6-3.8 2.9-6.2 3.8-2.4.9-5.1 1.3-8.1 1.3H53.4zm2-9.4h9.1c2.5 0 4.6-.7 6.3-2.2s2.5-3.4 2.5-5.8c0-1.8-.6-3.2-1.7-4.2-1.2-1-2.7-1.4-4.6-1.4h-8.7L55.4 23zM83.5 51.1L94.3 0h9.8L95 42.6h22.6V52H83.5v-.9zM133.8 52H124l11.1-52h9.8l-4.5 21.3h1.8L158.9 0h11.4v.9l-19.7 24.6v1.3L163 51.5v.5h-10.8l-10.8-21.3h-3.1L133.8 52zM193.3 47.1h1.3l10-47.1h9.4l-11.1 52h-18.3l3.5-47.1h-1.3l-10 47.1h-9.3l11-52h18.3l-3.5 47.1z"/><path fill="#F2EFF0" d="M211.9 55.5h36.4V64h-36.4v-8.5z"/></symbol><symbol id="logo-micro" viewBox="0 0 115 64"><path fill="#609F5E" d="M34.6 17.8v15.4L0 42.3v-9L28.8 26v-1.3L6.9 18.6V9.7l27.7 8.1z"/><path fill="#E8524D" d="M53.4 32.4L49.2 52h-9.7l11-52h18.6c2.2 0 4.1.3 5.9 1 1.8.7 3.3 1.7 4.5 2.9 1.2 1.2 2.2 2.7 2.9 4.4.7 1.7 1 3.5 1 5.5 0 2.8-.5 5.3-1.4 7.6-.9 2.3-2.3 4.2-4 5.9-1.7 1.6-3.8 2.9-6.2 3.8-2.4.9-5.1 1.3-8.1 1.3H53.4zm2-9.4h9.1c2.5 0 4.6-.7 6.3-2.2s2.5-3.4 2.5-5.8c0-1.8-.6-3.2-1.7-4.2-1.2-1-2.7-1.4-4.6-1.4h-8.7L55.4 23z"/><path fill="#F2EFF0" d="M78.3 55.5h36.4V64H78.3v-8.5z"/></symbol><symbol id="menu-btn-close" viewBox="0 0 100 100">
<style type="text/css">
	.st0{fill:#E8524D;}
</style>
<rect x="44" y="0" transform="matrix(0.7062 -0.708 0.708 0.7062 -20.7106 50.0922)" class="st0" width="12" height="100"/>
<rect x="0" y="44" transform="matrix(0.7072 -0.707 0.707 0.7072 -20.7107 49.9884)" class="st0" width="100" height="12"/>
</symbol><symbol id="menu-btn" viewBox="0 0 100 100">
<rect width="100" height="12"/>
<rect y="88" width="100" height="12"/>
<rect y="44" width="100" height="12"/>
</symbol><symbol id="paused-icon" viewBox="0 0 20 20">
<style type="text/css">
	.st0{stroke-miterlimit:10;}
</style>
  <rect x="3.2" y="2.8" class="st0" width="4.8" height="14.2"/>
  <rect x="12" y="2.8" class="st0" width="4.8" height="14.2"/>
</symbol><symbol id="play-icon" viewBox="0 0 20 20">
<style type="text/css">
	.st0{stroke-miterlimit:10;}
</style>
<path class="st0" d="M3.9,0.9"/>
<polygon class="st1" points="0,0 0,20 20,10 "/>
<path class="st0" d="M23.6,8.2"/>
</symbol><symbol id="skype-icon" viewBox="0 0 24.08 24.08">
  <g>
    <path d="M23.029,13.494c0.34,0.481,0.599,1.003,0.78,1.575c0.18,0.57,0.271,1.16,0.271,1.771c0,0.875-0.177,1.697-0.527,2.467
      c-0.351,0.768-0.834,1.445-1.45,2.033c-0.616,0.582-1.333,1.039-2.157,1.371s-1.691,0.495-2.613,0.495
      c-1.313,0-2.491-0.31-3.536-0.929c-0.29,0.04-0.582,0.069-0.877,0.091c-0.296,0.02-0.589,0.028-0.882,0.028
      c-1.534,0-2.974-0.275-4.321-0.823c-1.344-0.551-2.521-1.299-3.535-2.252c-1.011-0.949-1.808-2.068-2.382-3.349
      c-0.579-1.281-0.868-2.65-0.868-4.105c0-0.282,0.014-0.55,0.044-0.798c0.027-0.248,0.064-0.501,0.102-0.754
      C0.358,9.316,0,8.243,0,7.092c0-0.856,0.177-1.665,0.528-2.426c0.35-0.76,0.83-1.421,1.446-1.982C2.59,2.122,3.311,1.68,4.13,1.356
      c0.821-0.324,1.692-0.482,2.614-0.482c0.664,0,1.287,0.078,1.879,0.237c0.592,0.161,1.146,0.385,1.657,0.678
      c0.289-0.041,0.585-0.07,0.877-0.093c0.296-0.018,0.592-0.029,0.881-0.029c1.539,0,2.984,0.268,4.335,0.801
      c1.348,0.529,2.528,1.262,3.542,2.192c1.014,0.934,1.813,2.015,2.393,3.245c0.578,1.232,0.867,2.554,0.867,3.962
      C23.176,12.386,23.128,12.929,23.029,13.494z M17.333,16.696c0.474-0.624,0.708-1.357,0.708-2.199c0-0.663-0.132-1.22-0.392-1.672
      c-0.271-0.45-0.653-0.827-1.146-1.128c-0.453-0.292-1.042-0.551-1.763-0.783c-0.725-0.182-1.494-0.36-2.307-0.542l-0.891-0.203
      c-0.239-0.051-0.429-0.094-0.572-0.133c-0.159-0.039-0.306-0.082-0.446-0.133c-0.132-0.047-0.272-0.102-0.412-0.162
      C9.84,9.627,9.612,9.472,9.431,9.29c-0.14-0.157-0.21-0.368-0.21-0.63c0-0.383,0.228-0.725,0.681-1.028
      c0.513-0.283,1.14-0.419,1.885-0.41c0.861,0,1.466,0.127,1.807,0.382c0.412,0.302,0.735,0.674,0.966,1.113
      c0.201,0.322,0.405,0.562,0.616,0.72c0.201,0.154,0.48,0.237,0.831,0.248c0.395,0,0.722-0.131,0.997-0.395
      c0.269-0.246,0.398-0.523,0.391-0.835c0-0.361-0.102-0.716-0.302-1.058c-0.198-0.321-0.531-0.663-0.99-1.026
      c-0.232-0.156-0.487-0.299-0.762-0.43c-0.276-0.132-0.586-0.248-0.923-0.346c-0.353-0.096-0.724-0.17-1.115-0.22
      c-0.392-0.049-0.82-0.072-1.294-0.072c-1.194,0-2.201,0.146-3.021,0.438c-0.881,0.304-1.548,0.722-2,1.264
      C6.536,7.521,6.31,8.141,6.31,8.865c0,0.762,0.219,1.382,0.651,1.86c0.435,0.517,1.024,0.908,1.769,1.173
      c0.708,0.283,1.613,0.531,2.723,0.745c0.415,0.098,0.778,0.181,1.099,0.244c0.316,0.062,0.603,0.133,0.854,0.21
      c0.473,0.129,0.857,0.345,1.15,0.652c0.313,0.266,0.47,0.608,0.47,1.03c0,0.583-0.286,1.055-0.851,1.415
      c-0.534,0.369-1.256,0.551-2.165,0.538c-0.728,0-1.255-0.084-1.589-0.254c-0.415-0.189-0.721-0.429-0.922-0.715
      c-0.255-0.326-0.459-0.688-0.623-1.079c-0.143-0.371-0.336-0.651-0.588-0.84c-0.235-0.191-0.51-0.286-0.833-0.286
      c-0.412,0-0.752,0.115-1.021,0.341c-0.269,0.257-0.398,0.558-0.392,0.896c0,0.589,0.218,1.178,0.65,1.768
      c0.429,0.607,0.98,1.081,1.651,1.422c0.983,0.508,2.218,0.765,3.702,0.775c1.211,0,2.29-0.18,3.229-0.539
      C16.196,17.812,16.884,17.305,17.333,16.696z"/>
	</g>
</symbol><symbol id="volume-icon" viewBox="0 0 20 20">
<polygon points="7.8,15.3 7.8,6 17.8,0.8 17.8,19.3 "/>
<rect x="2.5" y="6" width="3.3" height="9.2"/>
</symbol></svg>