<?xml version="1.0" encoding="utf-8"?>
<svg xmlns="http://www.w3.org/2000/svg"
	xmlns:xlink="http://www.w3.org/1999/xlink"
	width="9px" height="16px" viewBox="0 0 9 16">
<path fillRule="evenodd" d="M 8.56 9.05C 8.85 8.77 9 8.39 9 7.99 9 7.59 8.85 7.21 8.56 6.93 8.56 6.93 1.74 0.29 1.74 0.29 1.35-0.1 0.71-0.1 0.32 0.29-0.08 0.68-0.08 1.31 0.32 1.7 0.32 1.7 6.78 7.99 6.78 7.99 6.78 7.99 0.32 14.28 0.32 14.28-0.08 14.67-0.08 15.3 0.32 15.69 0.71 16.08 1.35 16.08 1.74 15.69 1.74 15.69 8.56 9.05 8.56 9.05 8.56 9.05 8.56 9.05 8.56 9.05 8.56 9.05 8.56 9.05 8.56 9.05Z" fill="rgb(247,122,144)"/></svg>