<?xml version="1.0" encoding="utf-8"?>
<svg xmlns="http://www.w3.org/2000/svg"
	xmlns:xlink="http://www.w3.org/1999/xlink"
	width="110px" height="110px" viewBox="0 0 110 110">
<path fillRule="evenodd" d="M 55 110C 54.97 110 54.94 110 54.91 110 54.91 110 54.9 110 54.89 110 53.51 110 52.39 108.88 52.39 107.5 52.4 106.12 53.52 105 54.9 105 54.9 105 54.9 105 54.9 105 54.9 105 55 105 55 105 56.38 105 57.5 106.12 57.5 107.5 57.5 108.88 56.38 110 55 110 55 110 55 110 55 110 55 110 55 110 55 110ZM 40.76 108.05C 40.54 108.05 40.31 108.02 40.09 107.96 40.05 107.94 40 107.93 39.95 107.92 38.63 107.53 37.87 106.16 38.25 104.84 38.56 103.74 39.56 103.02 40.65 103.02 40.88 103.02 41.11 103.05 41.33 103.11 41.33 103.11 41.43 103.14 41.43 103.14 42.76 103.51 43.53 104.89 43.16 106.22 42.85 107.33 41.85 108.05 40.76 108.05 40.76 108.05 40.76 108.05 40.76 108.05ZM 27.58 102.28C 27.14 102.28 26.7 102.17 26.29 101.92 26.25 101.9 26.21 101.87 26.17 101.85 25.01 101.12 24.64 99.59 25.37 98.42 25.84 97.65 26.66 97.23 27.5 97.23 27.95 97.23 28.4 97.35 28.81 97.6 28.81 97.6 28.89 97.65 28.89 97.65 30.07 98.38 30.44 99.92 29.71 101.09 29.24 101.86 28.42 102.28 27.58 102.28 27.58 102.28 27.58 102.28 27.58 102.28ZM 16.47 93.16C 15.8 93.16 15.13 92.89 14.63 92.36 14.63 92.35 14.62 92.34 14.61 92.33 14.59 92.31 14.57 92.29 14.55 92.26 13.62 91.25 13.69 89.68 14.7 88.75 15.18 88.3 15.79 88.08 16.4 88.08 17.07 88.08 17.74 88.35 18.23 88.89 18.23 88.89 18.3 88.96 18.3 88.96 19.24 89.97 19.18 91.56 18.16 92.5 17.68 92.94 17.08 93.16 16.47 93.16 16.47 93.16 16.47 93.16 16.47 93.16ZM 8.23 81.38C 7.33 81.38 6.46 80.88 6.01 80.03 6.01 80.02 6 80 5.99 79.99 5.98 79.98 5.98 79.96 5.97 79.95 5.96 79.93 5.95 79.92 5.94 79.9 5.33 78.67 5.82 77.18 7.05 76.55 7.41 76.37 7.8 76.28 8.18 76.28 9.09 76.28 9.97 76.78 10.41 77.65 10.41 77.65 10.45 77.74 10.45 77.74 11.08 78.97 10.59 80.47 9.37 81.1 9 81.29 8.61 81.38 8.23 81.38 8.23 81.38 8.23 81.38 8.23 81.38ZM 3.5 67.8C 2.34 67.8 1.3 66.98 1.06 65.8 1.05 65.76 1.04 65.72 1.04 65.67 0.77 64.32 1.65 63.01 3 62.74 3.17 62.71 3.33 62.69 3.49 62.69 4.66 62.69 5.71 63.52 5.94 64.71 5.94 64.71 5.96 64.81 5.96 64.81 6.23 66.16 5.35 67.48 3.99 67.75 3.83 67.78 3.67 67.8 3.5 67.8 3.5 67.8 3.5 67.8 3.5 67.8ZM 2.65 53.44C 2.59 53.44 2.53 53.44 2.46 53.43 1.08 53.33 0.06 52.12 0.16 50.75 0.16 50.74 0.16 50.74 0.16 50.73 0.17 50.69 0.17 50.66 0.17 50.62 0.28 49.32 1.37 48.33 2.66 48.33 2.72 48.33 2.79 48.34 2.86 48.34 4.23 48.45 5.26 49.65 5.16 51.03 5.16 51.03 5.15 51.13 5.15 51.13 5.05 52.44 3.95 53.44 2.65 53.44 2.65 53.44 2.65 53.44 2.65 53.44ZM 5.7 39.39C 5.42 39.39 5.13 39.34 4.84 39.24 3.55 38.76 2.88 37.32 3.36 36.03 3.36 36.02 3.37 36.01 3.37 35.99 3.38 35.97 3.39 35.94 3.4 35.91 3.78 34.91 4.73 34.29 5.74 34.29 6.03 34.29 6.32 34.34 6.61 34.45 7.9 34.93 8.56 36.36 8.09 37.66 8.09 37.66 8.05 37.75 8.05 37.75 7.68 38.76 6.72 39.39 5.7 39.39 5.7 39.39 5.7 39.39 5.7 39.39ZM 12.47 26.71C 11.96 26.71 11.45 26.55 11 26.23 9.89 25.42 9.64 23.86 10.45 22.74 10.46 22.73 10.47 22.71 10.48 22.7 10.48 22.69 10.49 22.69 10.49 22.68 10.5 22.67 10.51 22.66 10.51 22.65 10.51 22.65 10.51 22.65 10.51 22.65 11 21.98 11.76 21.62 12.54 21.62 13.05 21.62 13.56 21.78 14.01 22.1 15.12 22.91 15.37 24.48 14.56 25.59 14.56 25.59 14.5 25.68 14.5 25.68 14.01 26.35 13.24 26.71 12.47 26.71 12.47 26.71 12.47 26.71 12.47 26.71ZM 22.43 16.32C 21.69 16.32 20.96 16 20.46 15.37 19.61 14.3 19.79 12.74 20.86 11.88 20.88 11.86 20.9 11.85 20.92 11.83 20.93 11.82 20.94 11.82 20.95 11.81 20.95 11.8 20.96 11.8 20.96 11.79 21.42 11.43 21.97 11.26 22.51 11.26 23.25 11.26 23.98 11.58 24.47 12.21 25.32 13.29 25.14 14.87 24.06 15.72 24.06 15.72 23.98 15.78 23.98 15.78 23.52 16.15 22.97 16.32 22.43 16.32 22.43 16.32 22.43 16.32 22.43 16.32ZM 34.81 9.02C 33.83 9.02 32.9 8.44 32.5 7.48 31.97 6.21 32.57 4.74 33.85 4.21 33.86 4.21 33.86 4.21 33.87 4.21 33.87 4.2 33.87 4.2 33.88 4.2 33.89 4.2 33.91 4.19 33.92 4.18 33.94 4.18 33.95 4.17 33.97 4.17 34.27 4.04 34.59 3.98 34.91 3.98 35.89 3.98 36.82 4.56 37.22 5.52 37.74 6.8 37.14 8.26 35.87 8.79 35.87 8.79 35.77 8.83 35.77 8.83 35.46 8.96 35.13 9.02 34.81 9.02 34.81 9.02 34.81 9.02 34.81 9.02ZM 48.71 5.37C 47.46 5.37 46.38 4.44 46.23 3.17 46.07 1.8 47.04 0.56 48.4 0.39 48.42 0.39 48.43 0.39 48.45 0.39 48.47 0.38 48.5 0.38 48.53 0.38 48.63 0.37 48.72 0.36 48.82 0.36 50.07 0.36 51.15 1.29 51.3 2.57 51.46 3.94 50.48 5.18 49.11 5.34 49.11 5.34 49.01 5.35 49.01 5.35 48.91 5.37 48.81 5.37 48.71 5.37 48.71 5.37 48.71 5.37 48.71 5.37ZM 63.2 5.64C 63.07 5.64 62.94 5.63 62.81 5.61 62.81 5.61 62.72 5.59 62.72 5.59 61.35 5.38 60.42 4.1 60.63 2.74 60.82 1.5 61.88 0.62 63.09 0.62 63.22 0.62 63.35 0.63 63.48 0.65 63.48 0.65 63.48 0.65 63.48 0.65 63.5 0.65 63.52 0.66 63.53 0.66 63.55 0.66 63.57 0.66 63.59 0.67 64.95 0.88 65.89 2.16 65.67 3.52 65.48 4.76 64.41 5.64 63.2 5.64 63.2 5.64 63.2 5.64 63.2 5.64ZM 76.96 9.8C 76.61 9.8 76.25 9.72 75.91 9.57 75.91 9.57 75.82 9.53 75.82 9.53 74.57 8.95 74.02 7.46 74.59 6.21 75.01 5.29 75.92 4.75 76.86 4.75 77.21 4.75 77.57 4.83 77.91 4.98 77.92 4.99 77.94 5 77.96 5 77.98 5.02 77.99 5.02 78.02 5.03 79.26 5.61 79.81 7.09 79.23 8.34 78.81 9.26 77.9 9.8 76.96 9.8 76.96 9.8 76.96 9.8 76.96 9.8ZM 89.07 17.55C 88.49 17.55 87.91 17.35 87.44 16.95 87.44 16.95 87.37 16.89 87.37 16.89 86.32 15.99 86.19 14.42 87.08 13.36 87.58 12.78 88.28 12.48 88.99 12.48 89.55 12.48 90.12 12.68 90.59 13.07 90.62 13.09 90.64 13.11 90.67 13.13 90.68 13.14 90.68 13.15 90.69 13.15 91.74 14.05 91.87 15.62 90.97 16.67 90.48 17.25 89.77 17.55 89.07 17.55 89.07 17.55 89.07 17.55 89.07 17.55ZM 98.64 28.29C 97.83 28.29 97.04 27.9 96.56 27.19 96.56 27.19 96.5 27.1 96.5 27.1 95.73 25.96 96.03 24.4 97.18 23.63 97.61 23.34 98.09 23.2 98.57 23.2 99.37 23.2 100.15 23.58 100.63 24.29 100.65 24.32 100.67 24.34 100.69 24.37 100.69 24.38 100.7 24.39 100.71 24.4 101.48 25.55 101.17 27.1 100.03 27.87 99.6 28.15 99.11 28.29 98.64 28.29 98.64 28.29 98.64 28.29 98.64 28.29ZM 104.93 41.22C 103.87 41.22 102.89 40.55 102.55 39.49 102.55 39.49 102.52 39.4 102.52 39.4 102.09 38.08 102.8 36.67 104.12 36.24 104.38 36.16 104.64 36.12 104.9 36.12 105.94 36.12 106.91 36.78 107.26 37.82 107.27 37.84 107.28 37.87 107.29 37.9 107.29 37.91 107.3 37.92 107.3 37.93 107.3 37.94 107.3 37.94 107.31 37.95 107.73 39.26 107.01 40.67 105.7 41.09 105.45 41.18 105.18 41.22 104.93 41.22 104.93 41.22 104.93 41.22 104.93 41.22ZM 107.46 55.37C 106.12 55.37 105.01 54.31 104.96 52.97 104.96 52.97 104.96 52.87 104.96 52.87 104.9 51.49 105.97 50.32 107.35 50.27 107.39 50.26 107.42 50.26 107.46 50.26 108.79 50.26 109.9 51.31 109.95 52.66 109.95 52.67 109.95 52.69 109.95 52.7 109.95 52.73 109.96 52.76 109.96 52.78 110 54.16 108.93 55.31 107.56 55.37 107.53 55.37 107.49 55.37 107.46 55.37 107.46 55.37 107.46 55.37 107.46 55.37ZM 106.08 69.69C 105.89 69.69 105.7 69.66 105.5 69.62 104.16 69.3 103.33 67.95 103.65 66.61 103.65 66.61 103.67 66.51 103.67 66.51 103.94 65.36 104.97 64.58 106.1 64.58 106.29 64.58 106.49 64.61 106.68 64.65 108.02 64.97 108.85 66.3 108.54 67.63 108.53 67.67 108.52 67.71 108.52 67.74 108.51 67.75 108.51 67.76 108.51 67.76 108.24 68.91 107.21 69.69 106.08 69.69 106.08 69.69 106.08 69.69 106.08 69.69ZM 100.86 83.08C 100.45 83.08 100.03 82.98 99.64 82.76 98.44 82.09 98 80.56 98.68 79.36 98.68 79.36 98.73 79.27 98.73 79.27 99.18 78.45 100.04 77.99 100.91 77.99 101.33 77.99 101.74 78.09 102.13 78.3 103.33 78.97 103.77 80.49 103.1 81.69 103.1 81.7 103.09 81.7 103.09 81.71 103.08 81.73 103.07 81.75 103.05 81.77 103.05 81.79 103.04 81.8 103.03 81.81 102.57 82.62 101.73 83.08 100.86 83.08 100.86 83.08 100.86 83.08 100.86 83.08ZM 92.19 94.55C 91.56 94.55 90.92 94.31 90.43 93.83 89.45 92.85 89.45 91.27 90.42 90.29 90.42 90.29 90.49 90.22 90.49 90.22 90.98 89.73 91.62 89.48 92.27 89.48 92.9 89.48 93.54 89.72 94.03 90.21 95 91.17 95.01 92.74 94.06 93.72 94.02 93.76 93.99 93.79 93.95 93.83 93.46 94.31 92.83 94.55 92.19 94.55 92.19 94.55 92.19 94.55 92.19 94.55ZM 80.75 103.26C 79.88 103.26 79.03 102.81 78.57 101.99 77.89 100.79 78.32 99.26 79.52 98.59 79.52 98.59 79.61 98.54 79.61 98.54 80 98.32 80.42 98.21 80.84 98.21 81.71 98.21 82.56 98.67 83.02 99.48 83.69 100.68 83.28 102.19 82.09 102.88 82.07 102.89 82.05 102.9 82.03 102.91 82.02 102.91 82.01 102.92 82 102.93 81.99 102.93 81.98 102.94 81.96 102.95 81.58 103.16 81.16 103.26 80.75 103.26 80.75 103.26 80.75 103.26 80.75 103.26ZM 67.37 108.53C 66.25 108.53 65.22 107.77 64.95 106.62 64.62 105.28 65.45 103.93 66.79 103.6 66.79 103.6 66.89 103.58 66.89 103.58 67.09 103.53 67.28 103.51 67.48 103.51 68.61 103.51 69.63 104.28 69.91 105.42 70.23 106.76 69.42 108.1 68.08 108.43 68.06 108.44 68.04 108.45 68.01 108.45 68 108.46 67.98 108.46 67.96 108.46 67.77 108.51 67.57 108.53 67.37 108.53 67.37 108.53 67.37 108.53 67.37 108.53Z" fill="rgb(45,39,40)"/></svg>