<?xml version="1.0" encoding="utf-8"?>
<svg xmlns="http://www.w3.org/2000/svg"
	xmlns:xlink="http://www.w3.org/1999/xlink"
	width="84px" height="83px" viewBox="0 0 84 83">
<g transform="matrix(0.69 0.00 0.00 0.69 0.00 0.00)"><path fillRule="evenodd" d="M 60.89 120C 60.86 120 60.84 120 60.81 120 60.8 120 60.79 120 60.78 120 59.4 120 58.28 118.88 58.28 117.5 58.29 116.12 59.41 115 60.79 115 60.79 115 60.79 115 60.79 115 60.79 115 60.89 115 60.89 115 62.27 115 63.39 116.12 63.39 117.5 63.39 118.88 62.27 120 60.89 120 60.89 120 60.89 120 60.89 120 60.89 120 60.89 120 60.89 120ZM 46.56 118.21C 46.35 118.21 46.14 118.18 45.94 118.13 45.93 118.13 45.92 118.13 45.91 118.13 45.9 118.12 45.88 118.12 45.87 118.11 45.86 118.11 45.84 118.11 45.83 118.1 44.49 117.76 43.69 116.4 44.03 115.06 44.32 113.93 45.34 113.18 46.45 113.18 46.66 113.18 46.87 113.21 47.07 113.26 47.07 113.26 47.17 113.29 47.17 113.29 48.51 113.63 49.32 114.99 48.98 116.33 48.69 117.46 47.67 118.21 46.56 118.21 46.56 118.21 46.56 118.21 46.56 118.21ZM 33.12 112.9C 32.72 112.9 32.31 112.81 31.93 112.6 31.89 112.58 31.85 112.56 31.81 112.54 30.61 111.87 30.18 110.35 30.84 109.15 31.3 108.32 32.15 107.85 33.03 107.85 33.44 107.85 33.86 107.95 34.24 108.16 34.24 108.16 34.33 108.21 34.33 108.21 35.54 108.88 35.98 110.4 35.31 111.61 34.86 112.44 34 112.9 33.12 112.9 33.12 112.9 33.12 112.9 33.12 112.9ZM 21.43 104.42C 20.82 104.42 20.2 104.2 19.72 103.74 19.7 103.73 19.68 103.71 19.66 103.69 19.65 103.68 19.64 103.67 19.63 103.66 18.63 102.71 18.59 101.14 19.53 100.14 20.02 99.61 20.69 99.35 21.35 99.35 21.97 99.35 22.58 99.57 23.06 100.03 23.06 100.03 23.14 100.1 23.14 100.1 24.15 101.04 24.2 102.62 23.25 103.63 22.76 104.16 22.1 104.42 21.43 104.42 21.43 104.42 21.43 104.42 21.43 104.42ZM 12.2 93.31C 11.38 93.31 10.57 92.9 10.1 92.16 10.08 92.13 10.05 92.09 10.03 92.06 10.03 92.06 10.03 92.06 10.03 92.06 9.29 90.89 9.63 89.35 10.8 88.61 11.22 88.34 11.68 88.22 12.14 88.22 12.97 88.22 13.78 88.63 14.25 89.38 14.25 89.38 14.31 89.46 14.31 89.46 15.05 90.63 14.71 92.17 13.54 92.92 13.13 93.18 12.66 93.31 12.2 93.31 12.2 93.31 12.2 93.31 12.2 93.31ZM 6.03 80.25C 4.98 80.25 4.01 79.59 3.66 78.54 3.65 78.52 3.64 78.5 3.64 78.48 3.63 78.46 3.62 78.44 3.62 78.42 3.19 77.11 3.91 75.7 5.23 75.27 5.48 75.19 5.74 75.15 6 75.15 7.05 75.15 8.03 75.82 8.38 76.88 8.38 76.88 8.41 76.98 8.41 76.98 8.83 78.29 8.11 79.7 6.8 80.13 6.54 80.21 6.28 80.25 6.03 80.25 6.03 80.25 6.03 80.25 6.03 80.25ZM 3.33 66.07C 2.02 66.07 0.93 65.06 0.84 63.74 0.83 63.69 0.83 63.64 0.83 63.59 0.75 62.22 1.8 61.05 3.17 60.97 3.22 60.96 3.27 60.96 3.32 60.96 4.64 60.96 5.74 61.98 5.82 63.31 5.82 63.31 5.83 63.41 5.83 63.41 5.91 64.79 4.86 65.98 3.48 66.06 3.43 66.07 3.38 66.07 3.33 66.07 3.33 66.07 3.33 66.07 3.33 66.07ZM 4.23 51.65C 4.08 51.65 3.92 51.63 3.76 51.6 2.41 51.34 1.52 50.04 1.78 48.69 1.78 48.66 1.79 48.64 1.79 48.61 1.79 48.6 1.8 48.58 1.8 48.57 2.03 47.37 3.07 46.54 4.25 46.54 4.4 46.54 4.56 46.56 4.72 46.59 6.08 46.85 6.97 48.16 6.71 49.52 6.71 49.52 6.69 49.61 6.69 49.61 6.46 50.81 5.41 51.65 4.23 51.65 4.23 51.65 4.23 51.65 4.23 51.65ZM 8.7 37.92C 8.34 37.92 7.98 37.84 7.64 37.68 6.39 37.09 5.85 35.6 6.45 34.35 6.45 34.34 6.46 34.32 6.47 34.31 6.47 34.3 6.47 34.3 6.47 34.3 6.48 34.28 6.49 34.27 6.49 34.25 6.92 33.35 7.82 32.82 8.75 32.82 9.11 32.82 9.48 32.9 9.82 33.07 11.07 33.66 11.6 35.15 11.01 36.4 11.01 36.4 10.97 36.49 10.97 36.49 10.54 37.39 9.64 37.92 8.7 37.92 8.7 37.92 8.7 37.92 8.7 37.92ZM 16.47 25.74C 15.91 25.74 15.34 25.55 14.87 25.17 13.81 24.28 13.67 22.71 14.55 21.65 14.57 21.62 14.6 21.59 14.62 21.57 14.62 21.57 14.62 21.56 14.62 21.56 15.12 20.97 15.83 20.66 16.54 20.66 17.11 20.66 17.67 20.85 18.14 21.24 19.2 22.13 19.35 23.7 18.46 24.76 18.46 24.76 18.4 24.84 18.4 24.84 17.9 25.44 17.19 25.74 16.47 25.74 16.47 25.74 16.47 25.74 16.47 25.74ZM 27.02 15.87C 26.25 15.87 25.49 15.51 25 14.84 24.19 13.72 24.44 12.16 25.55 11.35 25.58 11.33 25.6 11.31 25.63 11.29 25.64 11.29 25.64 11.28 25.65 11.27 26.09 10.96 26.6 10.81 27.11 10.81 27.88 10.81 28.64 11.17 29.13 11.84 29.94 12.96 29.69 14.53 28.57 15.33 28.57 15.33 28.49 15.39 28.49 15.39 28.05 15.71 27.53 15.87 27.02 15.87 27.02 15.87 27.02 15.87 27.02 15.87ZM 39.69 8.92C 38.69 8.92 37.75 8.32 37.36 7.34 36.85 6.06 37.48 4.61 38.75 4.1 38.76 4.1 38.77 4.09 38.79 4.09 38.81 4.08 38.84 4.07 38.87 4.06 39.17 3.94 39.48 3.88 39.78 3.88 40.78 3.88 41.72 4.48 42.11 5.47 42.61 6.75 41.98 8.2 40.7 8.71 40.7 8.71 40.6 8.75 40.6 8.75 40.3 8.86 39.99 8.92 39.69 8.92 39.69 8.92 39.69 8.92 39.69 8.92ZM 53.68 5.35C 52.43 5.35 51.35 4.42 51.2 3.16 51.03 1.79 52 0.54 53.37 0.37 53.4 0.37 53.42 0.36 53.45 0.36 53.47 0.36 53.48 0.36 53.5 0.36 53.59 0.34 53.69 0.34 53.79 0.34 55.03 0.34 56.11 1.27 56.26 2.53 56.43 3.9 55.46 5.15 54.09 5.32 54.09 5.32 53.99 5.33 53.99 5.33 53.88 5.35 53.78 5.35 53.68 5.35 53.68 5.35 53.68 5.35 53.68 5.35ZM 68.24 5.37C 68.13 5.37 68.03 5.36 67.92 5.35 67.92 5.35 67.82 5.34 67.82 5.34 66.45 5.16 65.48 3.91 65.65 2.54 65.81 1.28 66.88 0.35 68.13 0.35 68.23 0.35 68.33 0.36 68.44 0.37 68.48 0.38 68.51 0.38 68.55 0.39 68.55 0.39 68.55 0.39 68.55 0.39 69.92 0.56 70.89 1.81 70.72 3.18 70.56 4.44 69.48 5.37 68.24 5.37 68.24 5.37 68.24 5.37 68.24 5.37ZM 82.22 8.97C 81.91 8.97 81.6 8.91 81.3 8.79 81.3 8.79 81.2 8.76 81.2 8.76 79.92 8.25 79.29 6.79 79.8 5.51 80.19 4.53 81.13 3.93 82.12 3.93 82.43 3.93 82.74 3.99 83.04 4.11 83.04 4.11 83.05 4.11 83.05 4.11 83.07 4.12 83.09 4.13 83.12 4.14 83.13 4.14 83.13 4.14 83.14 4.15 84.43 4.66 85.05 6.11 84.54 7.39 84.15 8.37 83.21 8.97 82.22 8.97 82.22 8.97 82.22 8.97 82.22 8.97ZM 94.86 15.95C 94.35 15.95 93.84 15.79 93.39 15.47 93.39 15.47 93.31 15.41 93.31 15.41 92.2 14.6 91.95 13.03 92.76 11.92 93.25 11.24 94.01 10.88 94.78 10.88 95.29 10.88 95.8 11.04 96.24 11.36 96.28 11.38 96.31 11.41 96.35 11.43 97.46 12.25 97.7 13.8 96.89 14.92 96.4 15.59 95.64 15.95 94.86 15.95 94.86 15.95 94.86 15.95 94.86 15.95ZM 105.39 25.84C 104.67 25.84 103.96 25.54 103.46 24.94 103.46 24.94 103.4 24.86 103.4 24.86 102.52 23.8 102.67 22.22 103.73 21.34 104.2 20.95 104.76 20.76 105.32 20.76 106.04 20.76 106.75 21.07 107.25 21.67 107.25 21.67 107.25 21.67 107.25 21.68 107.28 21.7 107.3 21.73 107.32 21.75 108.2 22.82 108.05 24.39 106.99 25.27 106.52 25.66 105.95 25.84 105.39 25.84 105.39 25.84 105.39 25.84 105.39 25.84ZM 113.13 38.04C 112.2 38.04 111.3 37.51 110.87 36.6 110.87 36.6 110.83 36.51 110.83 36.51 110.24 35.26 110.77 33.77 112.02 33.18 112.37 33.02 112.73 32.94 113.09 32.94 114.02 32.94 114.91 33.47 115.34 34.36 115.35 34.38 115.36 34.4 115.36 34.41 115.37 34.43 115.38 34.45 115.39 34.48 115.98 35.72 115.45 37.21 114.2 37.8 113.85 37.96 113.49 38.04 113.13 38.04 113.13 38.04 113.13 38.04 113.13 38.04ZM 117.57 51.78C 116.39 51.78 115.34 50.94 115.12 49.74 115.12 49.74 115.1 49.64 115.1 49.64 114.84 48.28 115.73 46.97 117.09 46.72 117.25 46.69 117.4 46.67 117.56 46.67 118.73 46.67 119.78 47.51 120.01 48.7 120.01 48.72 120.01 48.73 120.02 48.75 120.02 48.76 120.02 48.78 120.02 48.79 120.03 48.8 120.03 48.82 120.03 48.83 120.28 50.18 119.39 51.48 118.04 51.73 117.88 51.76 117.72 51.78 117.57 51.78 117.57 51.78 117.57 51.78 117.57 51.78ZM 118.45 66.2C 118.39 66.2 118.34 66.2 118.28 66.19 116.91 66.11 115.86 64.92 115.95 63.54 115.95 63.54 115.95 63.44 115.95 63.44 116.04 62.11 117.14 61.09 118.45 61.09 118.5 61.09 118.55 61.1 118.61 61.1 119.98 61.18 121.02 62.36 120.95 63.73 120.94 63.76 120.94 63.78 120.94 63.81 120.94 63.82 120.94 63.83 120.94 63.85 120.94 63.85 120.94 63.86 120.94 63.87 120.85 65.19 119.75 66.2 118.45 66.2 118.45 66.2 118.45 66.2 118.45 66.2ZM 115.71 80.38C 115.45 80.38 115.19 80.34 114.93 80.25 113.62 79.82 112.91 78.41 113.34 77.1 113.34 77.1 113.37 77 113.37 77 113.71 75.95 114.69 75.28 115.75 75.28 116 75.28 116.26 75.32 116.52 75.4 117.83 75.83 118.55 77.24 118.12 78.55 118.12 78.55 118.12 78.56 118.12 78.57 118.11 78.58 118.11 78.59 118.1 78.61 118.1 78.63 118.09 78.65 118.08 78.67 117.73 79.72 116.76 80.38 115.71 80.38 115.71 80.38 115.71 80.38 115.71 80.38ZM 109.51 93.42C 109.05 93.42 108.58 93.29 108.16 93.02 107 92.28 106.66 90.73 107.41 89.57 107.41 89.57 107.46 89.48 107.46 89.48 107.94 88.74 108.75 88.33 109.57 88.33 110.03 88.33 110.5 88.46 110.91 88.72 112.08 89.47 112.42 91.01 111.68 92.17 111.67 92.19 111.65 92.21 111.64 92.23 111.63 92.24 111.62 92.25 111.62 92.27 111.14 93.01 110.33 93.42 109.51 93.42 109.51 93.42 109.51 93.42 109.51 93.42ZM 100.26 104.51C 99.59 104.51 98.92 104.24 98.43 103.72 97.49 102.71 97.54 101.12 98.55 100.18 98.55 100.18 98.62 100.11 98.62 100.11 99.11 99.66 99.72 99.44 100.33 99.44 101 99.44 101.67 99.71 102.16 100.23 103.1 101.24 103.05 102.82 102.04 103.76 102.04 103.77 102.03 103.77 102.02 103.78 102 103.8 101.98 103.82 101.96 103.84 101.48 104.29 100.87 104.51 100.26 104.51 100.26 104.51 100.26 104.51 100.26 104.51ZM 88.54 112.97C 87.66 112.97 86.8 112.5 86.35 111.67 85.69 110.46 86.13 108.94 87.34 108.27 87.34 108.27 87.43 108.22 87.43 108.22 87.81 108.02 88.23 107.92 88.63 107.92 89.52 107.92 90.37 108.39 90.83 109.22 91.49 110.42 91.05 111.93 89.85 112.6 89.83 112.61 89.81 112.62 89.78 112.64 89.77 112.65 89.76 112.65 89.74 112.66 89.36 112.87 88.95 112.97 88.54 112.97 88.54 112.97 88.54 112.97 88.54 112.97ZM 75.1 118.24C 73.98 118.24 72.96 117.49 72.68 116.36 72.34 115.02 73.15 113.66 74.49 113.32 74.49 113.32 74.58 113.29 74.58 113.29 74.79 113.24 75 113.21 75.2 113.21 76.32 113.21 77.34 113.97 77.63 115.1 77.97 116.44 77.16 117.8 75.82 118.14 75.8 118.14 75.77 118.15 75.75 118.15 75.73 118.16 75.72 118.16 75.7 118.17 75.5 118.22 75.29 118.24 75.1 118.24 75.1 118.24 75.1 118.24 75.1 118.24Z" fill="rgb(45,39,41)"/></g></svg>