<?xml version="1.0" encoding="utf-8"?>
<svg xmlns="http://www.w3.org/2000/svg"
	xmlns:xlink="http://www.w3.org/1999/xlink"
	width="139px" height="141px" viewBox="0 0 139 141">
<g transform="matrix(0.70 0.00 0.00 0.70 0.00 0.00)"><path fillRule="evenodd" d="M 99.58 202C 99.53 202 99.49 202 99.45 202 98.08 201.99 96.97 200.87 96.97 199.5 96.97 198.12 98.09 197 99.47 197 99.47 197 99.47 197 99.47 197 99.47 197 99.58 197 99.58 197 100.96 197 102.08 198.12 102.08 199.5 102.08 200.88 100.96 202 99.58 202 99.58 202 99.58 202 99.58 202 99.58 202 99.58 202 99.58 202ZM 84.91 200.89C 84.79 200.89 84.66 200.88 84.54 200.86 84.51 200.86 84.48 200.85 84.45 200.85 84.44 200.85 84.44 200.85 84.44 200.85 84.43 200.84 84.42 200.84 84.41 200.84 83.05 200.63 82.12 199.36 82.33 197.99 82.52 196.76 83.58 195.87 84.8 195.87 84.92 195.87 85.05 195.88 85.18 195.9 85.18 195.9 85.28 195.92 85.28 195.92 86.65 196.13 87.58 197.4 87.37 198.77 87.18 200 86.12 200.89 84.91 200.89 84.91 200.89 84.91 200.89 84.91 200.89ZM 70.58 197.55C 70.33 197.55 70.07 197.52 69.82 197.44 69.79 197.43 69.75 197.41 69.72 197.4 68.4 196.99 67.67 195.58 68.09 194.27 68.43 193.2 69.41 192.52 70.47 192.52 70.72 192.52 70.98 192.56 71.23 192.64 71.23 192.64 71.33 192.67 71.33 192.67 72.64 193.09 73.37 194.49 72.96 195.81 72.62 196.87 71.64 197.55 70.58 197.55 70.58 197.55 70.58 197.55 70.58 197.55ZM 56.93 192.06C 56.56 192.06 56.18 191.98 55.83 191.81 55.81 191.8 55.8 191.79 55.78 191.79 55.78 191.78 55.77 191.78 55.76 191.78 55.74 191.76 55.72 191.76 55.7 191.74 54.48 191.13 53.98 189.64 54.59 188.41 55.03 187.52 55.91 187.01 56.83 187.01 57.21 187.01 57.58 187.1 57.94 187.27 57.94 187.27 58.03 187.32 58.03 187.32 59.27 187.93 59.78 189.43 59.17 190.67 58.73 191.55 57.85 192.06 56.93 192.06 56.93 192.06 56.93 192.06 56.93 192.06ZM 44.27 184.56C 43.77 184.56 43.27 184.41 42.83 184.1 42.83 184.1 42.82 184.09 42.82 184.09 42.79 184.07 42.76 184.05 42.73 184.03 41.61 183.23 41.35 181.68 42.14 180.56 42.62 179.86 43.4 179.49 44.18 179.49 44.68 179.49 45.18 179.64 45.62 179.95 45.62 179.95 45.7 180.01 45.7 180.01 46.83 180.8 47.11 182.36 46.32 183.49 45.83 184.18 45.06 184.56 44.27 184.56 44.27 184.56 44.27 184.56 44.27 184.56ZM 32.89 175.22C 32.27 175.22 31.64 174.99 31.16 174.53 31.16 174.53 31.16 174.53 31.15 174.52 31.13 174.5 31.11 174.49 31.09 174.47 31.09 174.46 31.09 174.46 31.08 174.45 30.08 173.5 30.05 171.92 31 170.92 31.49 170.41 32.15 170.15 32.81 170.15 33.43 170.15 34.05 170.38 34.54 170.84 34.54 170.84 34.61 170.91 34.61 170.91 35.61 171.87 35.65 173.45 34.69 174.45 34.2 174.96 33.55 175.22 32.89 175.22 32.89 175.22 32.89 175.22 32.89 175.22ZM 23.03 164.29C 22.29 164.29 21.55 163.96 21.06 163.33 21.03 163.29 21 163.26 20.98 163.22 20.14 162.13 20.34 160.57 21.43 159.73 21.89 159.37 22.43 159.2 22.96 159.2 23.71 159.2 24.45 159.54 24.94 160.18 24.94 160.18 25 160.26 25 160.26 25.85 161.35 25.65 162.92 24.56 163.77 24.1 164.12 23.56 164.29 23.03 164.29 23.03 164.29 23.03 164.29 23.03 164.29ZM 14.91 152.01C 14.04 152.01 13.2 151.55 12.74 150.75 12.72 150.7 12.69 150.66 12.67 150.61 12.01 149.41 12.44 147.9 13.64 147.23 14.03 147.02 14.44 146.91 14.86 146.91 15.73 146.91 16.59 147.38 17.04 148.2 17.04 148.2 17.09 148.29 17.09 148.29 17.77 149.49 17.33 151.02 16.13 151.69 15.74 151.91 15.33 152.01 14.91 152.01 14.91 152.01 14.91 152.01 14.91 152.01ZM 8.72 138.65C 7.72 138.65 6.77 138.04 6.39 137.04 6.37 137 6.36 136.96 6.34 136.92 5.86 135.63 6.52 134.19 7.81 133.71 8.1 133.6 8.39 133.55 8.68 133.55 9.7 133.55 10.65 134.17 11.03 135.17 11.03 135.17 11.06 135.27 11.06 135.27 11.55 136.57 10.89 138.01 9.6 138.49 9.31 138.6 9.01 138.65 8.72 138.65 8.72 138.65 8.72 138.65 8.72 138.65ZM 4.6 124.52C 3.45 124.52 2.41 123.71 2.16 122.54 2.16 122.54 2.16 122.53 2.16 122.52 2.15 122.49 2.15 122.46 2.14 122.43 1.85 121.08 2.72 119.75 4.07 119.47 4.24 119.43 4.42 119.41 4.59 119.41 5.74 119.41 6.78 120.22 7.03 121.4 7.03 121.4 7.05 121.5 7.05 121.5 7.34 122.85 6.47 124.18 5.12 124.46 4.95 124.5 4.78 124.52 4.6 124.52 4.6 124.52 4.6 124.52 4.6 124.52ZM 2.64 109.92C 1.33 109.92 0.23 108.9 0.15 107.57 0.15 107.57 0.15 107.56 0.15 107.55 0.15 107.51 0.14 107.48 0.14 107.44 0.07 106.07 1.12 104.9 2.49 104.82 2.54 104.82 2.59 104.82 2.64 104.82 3.95 104.82 5.06 105.84 5.14 107.17 5.14 107.17 5.14 107.28 5.14 107.28 5.22 108.65 4.17 109.84 2.79 109.92 2.74 109.92 2.69 109.92 2.64 109.92 2.64 109.92 2.64 109.92 2.64 109.92ZM 2.85 95.19C 2.78 95.19 2.71 95.19 2.63 95.18 1.26 95.06 0.25 93.86 0.36 92.49 0.36 92.45 0.37 92.4 0.37 92.36 0.49 91.06 1.58 90.09 2.86 90.09 2.93 90.09 3 90.09 3.08 90.1 4.46 90.22 5.47 91.43 5.35 92.81 5.35 92.81 5.34 92.91 5.34 92.91 5.23 94.21 4.13 95.19 2.85 95.19 2.85 95.19 2.85 95.19 2.85 95.19ZM 5.23 80.66C 5.03 80.66 4.83 80.64 4.64 80.59 3.29 80.27 2.47 78.92 2.79 77.58 2.8 77.54 2.81 77.51 2.82 77.47 3.1 76.33 4.12 75.56 5.25 75.56 5.44 75.56 5.64 75.58 5.84 75.63 7.18 75.95 8 77.31 7.68 78.65 7.68 78.65 7.65 78.75 7.65 78.75 7.38 79.89 6.35 80.66 5.23 80.66 5.23 80.66 5.23 80.66 5.23 80.66ZM 9.74 66.65C 9.43 66.65 9.11 66.59 8.8 66.47 7.52 65.95 6.91 64.49 7.43 63.21 7.43 63.19 7.44 63.18 7.45 63.16 7.45 63.15 7.45 63.16 7.45 63.15 7.46 63.14 7.46 63.12 7.47 63.11 7.86 62.14 8.8 61.55 9.78 61.55 10.1 61.55 10.42 61.61 10.73 61.74 12.01 62.26 12.62 63.72 12.1 65 12.1 65 12.06 65.1 12.06 65.1 11.66 66.07 10.73 66.65 9.74 66.65 9.74 66.65 9.74 66.65 9.74 66.65ZM 16.31 53.48C 15.87 53.48 15.43 53.36 15.03 53.12 13.84 52.42 13.45 50.88 14.16 49.7 14.17 49.67 14.19 49.65 14.2 49.63 14.21 49.62 14.21 49.61 14.22 49.6 14.68 48.82 15.51 48.38 16.37 48.38 16.8 48.38 17.24 48.5 17.64 48.74 18.83 49.45 19.22 50.98 18.51 52.17 18.51 52.17 18.46 52.26 18.46 52.26 17.99 53.04 17.16 53.48 16.31 53.48 16.31 53.48 16.31 53.48 16.31 53.48ZM 24.77 41.43C 24.21 41.43 23.65 41.24 23.18 40.86 22.12 39.99 21.96 38.41 22.84 37.35 22.86 37.31 22.89 37.28 22.92 37.25 23.41 36.65 24.12 36.35 24.84 36.35 25.4 36.35 25.96 36.53 26.43 36.92 27.49 37.79 27.65 39.37 26.77 40.44 26.77 40.44 26.7 40.52 26.7 40.52 26.21 41.12 25.49 41.43 24.77 41.43 24.77 41.43 24.77 41.43 24.77 41.43ZM 34.94 30.78C 34.25 30.78 33.57 30.5 33.08 29.96 32.15 28.93 32.24 27.35 33.26 26.43 33.27 26.42 33.28 26.41 33.28 26.41 33.31 26.38 33.33 26.36 33.36 26.34 33.84 25.92 34.43 25.71 35.02 25.71 35.7 25.71 36.38 25.99 36.87 26.54 37.8 27.57 37.71 29.15 36.69 30.07 36.69 30.07 36.61 30.14 36.61 30.14 36.13 30.57 35.53 30.78 34.94 30.78 34.94 30.78 34.94 30.78 34.94 30.78ZM 46.58 21.78C 45.77 21.78 44.97 21.38 44.49 20.65 43.73 19.5 44.05 17.95 45.21 17.19 45.24 17.17 45.27 17.15 45.3 17.13 45.72 16.85 46.2 16.72 46.67 16.72 47.48 16.72 48.28 17.12 48.76 17.85 49.52 19 49.2 20.55 48.04 21.31 48.04 21.31 47.96 21.37 47.96 21.37 47.53 21.65 47.06 21.78 46.58 21.78 46.58 21.78 46.58 21.78 46.58 21.78ZM 59.45 14.64C 58.5 14.64 57.6 14.1 57.18 13.18 56.6 11.93 57.15 10.45 58.4 9.87 58.41 9.87 58.42 9.86 58.43 9.86 58.46 9.85 58.48 9.84 58.51 9.82 58.84 9.67 59.2 9.6 59.55 9.6 60.49 9.6 61.4 10.14 61.82 11.06 62.39 12.31 61.84 13.8 60.59 14.37 60.59 14.37 60.49 14.41 60.49 14.41 60.15 14.57 59.8 14.64 59.45 14.64 59.45 14.64 59.45 14.64 59.45 14.64ZM 73.25 9.55C 72.16 9.55 71.16 8.83 70.85 7.73 70.47 6.41 71.23 5.04 72.55 4.65 72.58 4.64 72.62 4.63 72.65 4.62 72.66 4.62 72.67 4.62 72.67 4.62 72.9 4.55 73.13 4.52 73.36 4.52 74.45 4.52 75.45 5.24 75.76 6.34 76.14 7.67 75.36 9.05 74.03 9.43 74.03 9.43 73.93 9.46 73.93 9.46 73.71 9.52 73.48 9.55 73.25 9.55 73.25 9.55 73.25 9.55 73.25 9.55ZM 87.67 6.64C 86.42 6.64 85.35 5.71 85.19 4.44 85.02 3.07 85.99 1.82 87.37 1.65 87.37 1.65 87.38 1.65 87.39 1.65 87.43 1.65 87.46 1.64 87.5 1.64 87.59 1.63 87.69 1.62 87.78 1.62 89.03 1.62 90.1 2.55 90.26 3.82 90.43 5.19 89.45 6.44 88.08 6.6 88.08 6.6 87.98 6.62 87.98 6.62 87.87 6.63 87.77 6.64 87.67 6.64 87.67 6.64 87.67 6.64 87.67 6.64ZM 102.48 5.95C 102.46 5.95 102.43 5.95 102.41 5.95 102.41 5.95 102.3 5.94 102.3 5.94 100.92 5.9 99.84 4.75 99.88 3.37 99.91 2.02 101.02 0.95 102.37 0.95 102.4 0.95 102.42 0.95 102.45 0.95 102.45 0.95 102.46 0.95 102.47 0.95 102.51 0.95 102.54 0.95 102.58 0.95 103.95 1 105.02 2.15 104.98 3.52 104.94 4.88 103.83 5.95 102.48 5.95 102.48 5.95 102.48 5.95 102.48 5.95ZM 117.12 7.5C 116.97 7.5 116.81 7.49 116.66 7.46 116.66 7.46 116.56 7.44 116.56 7.44 115.2 7.19 114.3 5.89 114.55 4.53 114.77 3.32 115.82 2.48 117 2.48 117.15 2.48 117.3 2.49 117.45 2.52 117.49 2.53 117.54 2.54 117.58 2.54 118.93 2.8 119.82 4.1 119.57 5.45 119.35 6.66 118.3 7.5 117.12 7.5 117.12 7.5 117.12 7.5 117.12 7.5ZM 131.33 11.27C 131.06 11.27 130.78 11.22 130.51 11.13 130.51 11.13 130.41 11.09 130.41 11.09 129.11 10.64 128.42 9.21 128.87 7.91 129.23 6.88 130.2 6.23 131.23 6.23 131.5 6.23 131.78 6.28 132.05 6.37 132.06 6.37 132.06 6.37 132.06 6.37 132.07 6.38 132.09 6.38 132.1 6.39 132.1 6.39 132.11 6.39 132.11 6.39 132.13 6.4 132.15 6.41 132.17 6.41 133.47 6.87 134.15 8.29 133.7 9.59 133.34 10.62 132.37 11.27 131.33 11.27 131.33 11.27 131.33 11.27 131.33 11.27ZM 144.81 17.17C 144.41 17.17 144.01 17.07 143.64 16.88 143.64 16.88 143.54 16.83 143.54 16.83 142.33 16.18 141.86 14.66 142.51 13.45 142.96 12.6 143.82 12.12 144.72 12.12 145.11 12.12 145.51 12.21 145.88 12.41 145.89 12.41 145.9 12.42 145.91 12.42 145.94 12.44 145.96 12.45 145.99 12.46 147.21 13.11 147.67 14.62 147.02 15.84 146.57 16.69 145.7 17.17 144.81 17.17 144.81 17.17 144.81 17.17 144.81 17.17ZM 157.24 25.05C 156.72 25.05 156.19 24.89 155.74 24.56 155.74 24.56 155.66 24.49 155.66 24.49 154.55 23.67 154.32 22.1 155.15 20.99 155.64 20.34 156.39 19.99 157.15 19.99 157.67 19.99 158.19 20.15 158.63 20.47 158.64 20.48 158.66 20.5 158.68 20.51 158.69 20.52 158.71 20.53 158.73 20.55 159.84 21.37 160.07 22.94 159.24 24.05 158.75 24.7 158 25.05 157.24 25.05 157.24 25.05 157.24 25.05 157.24 25.05ZM 168.34 34.72C 167.69 34.72 167.05 34.47 166.56 33.98 166.56 33.98 166.49 33.9 166.49 33.9 165.52 32.92 165.53 31.34 166.51 30.37 166.99 29.88 167.63 29.64 168.26 29.64 168.91 29.64 169.55 29.89 170.04 30.38 170.05 30.39 170.05 30.39 170.05 30.4 170.08 30.42 170.1 30.45 170.13 30.47 171.09 31.46 171.08 33.03 170.1 34 169.61 34.48 168.97 34.72 168.34 34.72 168.34 34.72 168.34 34.72 168.34 34.72ZM 177.87 45.94C 177.1 45.94 176.34 45.58 175.85 44.91 175.85 44.91 175.79 44.83 175.79 44.83 174.98 43.71 175.22 42.15 176.34 41.33 176.78 41.01 177.3 40.85 177.81 40.85 178.58 40.85 179.34 41.21 179.83 41.88 179.84 41.89 179.84 41.9 179.85 41.91 179.87 41.93 179.88 41.95 179.9 41.98 180.7 43.09 180.46 44.65 179.34 45.46 178.9 45.78 178.38 45.94 177.87 45.94 177.87 45.94 177.87 45.94 177.87 45.94ZM 185.62 58.46C 184.72 58.46 183.85 57.96 183.4 57.11 183.4 57.11 183.36 57.02 183.36 57.02 182.72 55.79 183.19 54.28 184.42 53.64 184.79 53.45 185.18 53.36 185.57 53.36 186.47 53.36 187.34 53.85 187.79 54.7 187.79 54.71 187.8 54.72 187.8 54.73 187.81 54.75 187.83 54.78 187.84 54.8 188.48 56.03 188 57.54 186.78 58.17 186.41 58.36 186.01 58.46 185.62 58.46 185.62 58.46 185.62 58.46 185.62 58.46ZM 191.41 71.99C 190.37 71.99 189.4 71.34 189.04 70.3 189.04 70.3 189.01 70.2 189.01 70.2 188.56 68.89 189.26 67.47 190.57 67.02 190.84 66.93 191.11 66.89 191.38 66.89 192.42 66.89 193.39 67.54 193.74 68.58 193.75 68.61 193.76 68.65 193.78 68.68 194.22 69.99 193.53 71.41 192.22 71.85 191.95 71.95 191.68 71.99 191.41 71.99 191.41 71.99 191.41 71.99 191.41 71.99ZM 195.11 86.24C 193.92 86.24 192.87 85.39 192.65 84.18 192.65 84.18 192.63 84.08 192.63 84.08 192.38 82.72 193.28 81.42 194.64 81.17 194.79 81.14 194.94 81.13 195.09 81.13 196.27 81.13 197.32 81.97 197.54 83.17 197.55 83.19 197.55 83.22 197.56 83.24 197.56 83.26 197.56 83.27 197.57 83.29 197.81 84.65 196.91 85.95 195.55 86.2 195.4 86.22 195.25 86.24 195.11 86.24 195.11 86.24 195.11 86.24 195.11 86.24ZM 196.64 100.88C 195.3 100.88 194.18 99.81 194.14 98.46 194.14 98.46 194.14 98.35 194.14 98.35 194.1 96.97 195.18 95.82 196.56 95.78 196.59 95.78 196.61 95.78 196.64 95.78 197.98 95.78 199.09 96.84 199.14 98.2 199.14 98.23 199.14 98.25 199.14 98.29 199.14 98.29 199.14 98.3 199.14 98.31 199.18 99.69 198.1 100.84 196.72 100.88 196.69 100.88 196.67 100.88 196.64 100.88 196.64 100.88 196.64 100.88 196.64 100.88ZM 196.01 115.6C 195.92 115.6 195.82 115.6 195.72 115.58 194.35 115.42 193.37 114.18 193.53 112.81 193.53 112.81 193.54 112.71 193.54 112.71 193.69 111.43 194.77 110.49 196.02 110.49 196.12 110.49 196.21 110.5 196.31 110.51 197.68 110.67 198.66 111.9 198.51 113.26 198.5 113.31 198.5 113.36 198.49 113.4 198.34 114.67 197.26 115.6 196.01 115.6 196.01 115.6 196.01 115.6 196.01 115.6ZM 193.21 130.06C 192.99 130.06 192.77 130.03 192.55 129.97 191.22 129.6 190.43 128.23 190.8 126.9 190.8 126.9 190.82 126.8 190.82 126.8 191.13 125.68 192.14 124.95 193.24 124.95 193.45 124.95 193.67 124.98 193.89 125.04 195.22 125.4 196.01 126.76 195.65 128.09 195.65 128.11 195.64 128.13 195.64 128.14 195.64 128.15 195.63 128.16 195.63 128.17 195.63 128.18 195.63 128.19 195.62 128.2 195.62 128.2 195.62 128.21 195.62 128.21 195.32 129.32 194.31 130.06 193.21 130.06 193.21 130.06 193.21 130.06 193.21 130.06ZM 188.28 143.93C 187.94 143.93 187.6 143.86 187.27 143.71 186 143.15 185.43 141.68 185.99 140.41 185.99 140.41 186.03 140.32 186.03 140.32 186.45 139.38 187.36 138.83 188.32 138.83 188.66 138.83 189 138.9 189.33 139.04 190.59 139.6 191.17 141.07 190.61 142.33 190.6 142.36 190.59 142.38 190.58 142.4 190.58 142.41 190.58 142.41 190.57 142.42 190.57 142.43 190.56 142.44 190.56 142.45 190.14 143.38 189.23 143.93 188.28 143.93 188.28 143.93 188.28 143.93 188.28 143.93ZM 181.32 156.9C 180.86 156.9 180.4 156.77 179.98 156.51 178.82 155.77 178.48 154.22 179.22 153.06 179.22 153.06 179.27 152.97 179.27 152.97 179.75 152.22 180.56 151.81 181.39 151.81 181.84 151.81 182.31 151.94 182.72 152.2 183.89 152.94 184.23 154.47 183.5 155.64 183.49 155.65 183.48 155.67 183.47 155.69 183.46 155.71 183.45 155.72 183.43 155.74 182.96 156.49 182.15 156.9 181.32 156.9 181.32 156.9 181.32 156.9 181.32 156.9ZM 172.51 168.69C 171.93 168.69 171.34 168.49 170.87 168.08 169.83 167.17 169.72 165.59 170.63 164.55 170.63 164.55 170.69 164.47 170.69 164.47 171.19 163.9 171.88 163.61 172.58 163.61 173.16 163.61 173.75 163.81 174.22 164.22 175.26 165.13 175.37 166.69 174.48 167.73 174.45 167.77 174.42 167.8 174.39 167.84 173.9 168.4 173.21 168.69 172.51 168.69 172.51 168.69 172.51 168.69 172.51 168.69ZM 162.04 179.03C 161.33 179.03 160.62 178.73 160.13 178.15 159.24 177.1 159.36 175.52 160.42 174.63 160.42 174.63 160.5 174.56 160.5 174.56 160.97 174.16 161.54 173.96 162.12 173.96 162.82 173.96 163.53 174.26 164.02 174.85 164.92 175.9 164.79 177.47 163.74 178.37 163.73 178.38 163.72 178.39 163.71 178.39 163.69 178.41 163.67 178.42 163.65 178.44 163.18 178.84 162.61 179.03 162.04 179.03 162.04 179.03 162.04 179.03 162.04 179.03ZM 150.13 187.69C 149.29 187.69 148.47 187.26 148 186.5 147.28 185.32 147.64 183.78 148.82 183.06 148.82 183.06 148.9 183 148.9 183 149.31 182.75 149.77 182.63 150.22 182.63 151.05 182.63 151.87 183.05 152.35 183.82 153.07 184.98 152.71 186.52 151.55 187.25 151.53 187.26 151.51 187.27 151.49 187.28 151.48 187.29 151.46 187.3 151.44 187.31 151.03 187.57 150.58 187.69 150.13 187.69 150.13 187.69 150.13 187.69 150.13 187.69ZM 137.05 194.43C 136.08 194.43 135.15 193.86 134.75 192.91 134.21 191.64 134.81 190.17 136.08 189.63 136.08 189.63 136.18 189.59 136.18 189.59 136.49 189.46 136.82 189.39 137.15 189.39 138.12 189.39 139.05 189.96 139.45 190.92 139.99 192.19 139.4 193.65 138.13 194.19 138.12 194.2 138.11 194.2 138.09 194.21 138.08 194.21 138.08 194.22 138.07 194.22 138.05 194.23 138.04 194.23 138.02 194.24 137.7 194.37 137.38 194.43 137.05 194.43 137.05 194.43 137.05 194.43 137.05 194.43ZM 123.1 199.11C 121.98 199.11 120.96 198.35 120.68 197.21 120.34 195.88 121.15 194.52 122.49 194.18 122.49 194.18 122.59 194.15 122.59 194.15 122.8 194.1 123 194.08 123.21 194.08 124.33 194.08 125.34 194.83 125.63 195.97 125.97 197.3 125.16 198.65 123.84 199 123.81 199 123.8 199.01 123.78 199.01 123.75 199.02 123.73 199.02 123.71 199.03 123.51 199.08 123.3 199.11 123.1 199.11 123.1 199.11 123.1 199.11 123.1 199.11ZM 108.6 201.58C 107.32 201.58 106.23 200.61 106.11 199.32 105.98 197.94 106.99 196.72 108.37 196.59 108.37 196.59 108.47 196.58 108.47 196.58 108.55 196.58 108.63 196.57 108.71 196.57 109.98 196.57 111.07 197.54 111.2 198.84 111.33 200.21 110.32 201.43 108.94 201.56 108.92 201.56 108.91 201.56 108.89 201.57 108.87 201.57 108.84 201.57 108.82 201.57 108.74 201.58 108.67 201.58 108.6 201.58 108.6 201.58 108.6 201.58 108.6 201.58Z" fill="rgb(45,39,41)"/></g></svg>