<?xml version="1.0" encoding="utf-8"?>
<svg xmlns="http://www.w3.org/2000/svg"
	xmlns:xlink="http://www.w3.org/1999/xlink"
	width="98px" height="97px" viewBox="0 0 98 97">
<g transform="matrix(0.70 0.00 0.00 0.69 0.00 0.00)"><path fillRule="evenodd" d="M 70.3 139.63C 70.28 139.63 70.25 139.63 70.23 139.62 70.22 139.62 70.2 139.62 70.19 139.62 68.81 139.62 67.69 138.5 67.69 137.12 67.69 135.74 68.81 134.62 70.19 134.62 70.19 134.62 70.19 134.62 70.19 134.62 70.19 134.62 70.3 134.63 70.3 134.63 70.43 134.63 70.56 134.64 70.69 134.66 70.81 134.63 70.94 134.62 71.08 134.62 71.08 134.62 71.18 134.62 71.18 134.62 71.19 134.62 71.2 134.62 71.21 134.62 72.58 134.62 73.69 135.72 73.71 137.09 73.73 138.47 72.63 139.6 71.25 139.62 71.24 139.62 71.24 139.62 71.23 139.62 71.22 139.62 71.22 139.62 71.21 139.62 71.18 139.62 71.15 139.62 71.12 139.62 71.11 139.62 71.11 139.62 71.1 139.62 70.97 139.62 70.84 139.61 70.72 139.59 70.58 139.61 70.44 139.63 70.3 139.63 70.3 139.63 70.3 139.63 70.3 139.63 70.3 139.63 70.3 139.63 70.3 139.63ZM 55.84 138.08C 55.67 138.08 55.49 138.06 55.32 138.02 55.3 138.02 55.29 138.02 55.27 138.01 55.24 138.01 55.22 138 55.19 138 53.84 137.7 52.99 136.37 53.29 135.02 53.54 133.85 54.58 133.05 55.73 133.05 55.91 133.05 56.08 133.07 56.26 133.11 56.26 133.11 56.36 133.13 56.36 133.13 57.71 133.43 58.57 134.76 58.27 136.11 58.02 137.28 56.99 138.08 55.84 138.08 55.84 138.08 55.84 138.08 55.84 138.08ZM 42.04 133.47C 41.7 133.46 41.35 133.39 41.01 133.24 41 133.24 40.99 133.23 40.98 133.22 40.95 133.21 40.93 133.2 40.9 133.19 39.65 132.61 39.1 131.13 39.68 129.87 40.1 128.96 41.01 128.42 41.95 128.42 42.3 128.42 42.66 128.49 43 128.65 43 128.65 43.09 128.69 43.09 128.69 44.34 129.27 44.89 130.76 44.31 132.01 43.89 132.93 42.99 133.47 42.04 133.47 42.04 133.47 42.04 133.47 42.04 133.47ZM 29.57 126C 29.05 126 28.52 125.83 28.08 125.5 28.04 125.47 28 125.44 27.96 125.41 26.87 124.58 26.66 123.02 27.49 121.92 27.98 121.27 28.73 120.93 29.49 120.93 30.01 120.93 30.54 121.1 30.99 121.44 30.99 121.44 31.07 121.5 31.07 121.5 32.18 122.33 32.39 123.9 31.56 125 31.07 125.65 30.32 126 29.57 126 29.57 126 29.57 126 29.57 126ZM 18.97 116.03C 18.27 116.03 17.57 115.73 17.07 115.16 17.05 115.13 17.03 115.11 17.01 115.08 17.01 115.08 17 115.07 17 115.07 16.1 114.02 16.23 112.45 17.28 111.55 17.75 111.15 18.33 110.95 18.9 110.95 19.61 110.95 20.31 111.25 20.8 111.83 20.8 111.83 20.87 111.9 20.87 111.9 21.77 112.95 21.65 114.53 20.6 115.43 20.13 115.83 19.55 116.03 18.97 116.03 18.97 116.03 18.97 116.03 18.97 116.03ZM 10.75 104.04C 9.87 104.04 9.01 103.56 8.56 102.73 8.54 102.71 8.53 102.68 8.52 102.66 8.51 102.65 8.5 102.63 8.5 102.62 7.85 101.4 8.3 99.89 9.52 99.24 9.9 99.04 10.3 98.94 10.7 98.94 11.59 98.94 12.46 99.42 12.91 100.26 12.91 100.26 12.95 100.35 12.95 100.35 13.61 101.57 13.15 103.09 11.93 103.74 11.56 103.94 11.15 104.04 10.75 104.04 10.75 104.04 10.75 104.04 10.75 104.04ZM 5.31 90.56C 4.22 90.56 3.22 89.83 2.91 88.73 2.9 88.7 2.89 88.66 2.88 88.63 2.5 87.3 3.28 85.92 4.61 85.55 4.83 85.48 5.06 85.45 5.28 85.45 6.38 85.45 7.38 86.18 7.69 87.28 7.69 87.28 7.72 87.38 7.72 87.38 8.09 88.71 7.32 90.09 5.99 90.46 5.76 90.53 5.53 90.56 5.31 90.56 5.31 90.56 5.31 90.56 5.31 90.56ZM 2.92 76.22C 1.6 76.22 0.5 75.19 0.43 73.86 0.42 73.82 0.42 73.78 0.42 73.75 0.34 72.37 1.4 71.19 2.78 71.11 2.82 71.11 2.87 71.11 2.92 71.11 4.23 71.11 5.34 72.14 5.41 73.47 5.41 73.47 5.42 73.57 5.42 73.57 5.5 74.95 4.44 76.13 3.06 76.21 3.01 76.21 2.97 76.22 2.92 76.22 2.92 76.22 2.92 76.22 2.92 76.22ZM 3.66 61.69C 3.52 61.69 3.39 61.68 3.26 61.66 1.9 61.44 0.97 60.17 1.18 58.81 1.19 58.76 1.2 58.72 1.21 58.67 1.41 57.45 2.47 56.58 3.67 56.58 3.8 56.58 3.93 56.59 4.07 56.61 5.43 56.83 6.36 58.12 6.14 59.48 6.14 59.48 6.12 59.58 6.12 59.58 5.93 60.81 4.86 61.69 3.66 61.69 3.66 61.69 3.66 61.69 3.66 61.69ZM 7.49 47.67C 7.19 47.67 6.87 47.61 6.57 47.49 5.29 46.99 4.66 45.53 5.17 44.25 5.18 44.23 5.19 44.21 5.2 44.18 5.2 44.18 5.2 44.17 5.2 44.17 5.21 44.16 5.21 44.15 5.21 44.15 5.6 43.17 6.54 42.57 7.53 42.57 7.84 42.57 8.15 42.63 8.46 42.75 9.74 43.26 10.37 44.71 9.86 45.99 9.86 45.99 9.82 46.09 9.82 46.09 9.43 47.07 8.49 47.67 7.49 47.67 7.49 47.67 7.49 47.67 7.49 47.67ZM 14.28 34.81C 13.79 34.81 13.31 34.67 12.88 34.38 11.73 33.61 11.43 32.06 12.21 30.91 12.22 30.89 12.24 30.86 12.26 30.84 12.27 30.83 12.27 30.82 12.28 30.8 12.77 30.1 13.55 29.72 14.34 29.72 14.82 29.72 15.31 29.86 15.74 30.15 16.88 30.93 17.18 32.48 16.41 33.63 16.41 33.63 16.35 33.71 16.35 33.71 15.87 34.43 15.08 34.81 14.28 34.81 14.28 34.81 14.28 34.81 14.28 34.81ZM 23.67 23.7C 23.01 23.7 22.35 23.44 21.86 22.93 20.91 21.93 20.94 20.35 21.94 19.4 21.95 19.39 21.96 19.38 21.97 19.37 21.99 19.35 22.02 19.33 22.04 19.31 22.52 18.86 23.13 18.63 23.75 18.63 24.41 18.63 25.07 18.89 25.56 19.41 26.51 20.41 26.47 21.99 25.47 22.94 25.47 22.94 25.39 23.01 25.39 23.01 24.91 23.48 24.29 23.7 23.67 23.7 23.67 23.7 23.67 23.7 23.67 23.7ZM 35.22 14.86C 34.37 14.86 33.55 14.43 33.08 13.65 32.36 12.47 32.73 10.94 33.91 10.22 33.93 10.21 33.94 10.21 33.95 10.2 33.97 10.19 33.99 10.18 34 10.17 34 10.17 34.01 10.17 34.01 10.16 34.41 9.92 34.86 9.8 35.3 9.8 36.15 9.8 36.97 10.23 37.44 11.01 38.16 12.19 37.78 13.72 36.6 14.44 36.6 14.44 36.51 14.49 36.51 14.49 36.11 14.74 35.66 14.86 35.22 14.86 35.22 14.86 35.22 14.86 35.22 14.86ZM 48.38 8.69C 47.34 8.69 46.37 8.04 46.01 7 45.57 5.7 46.26 4.28 47.55 3.83 47.59 3.82 47.62 3.81 47.65 3.8 47.66 3.79 47.67 3.79 47.67 3.79 47.94 3.7 48.21 3.65 48.48 3.65 49.52 3.65 50.49 4.31 50.85 5.35 51.29 6.65 50.59 8.08 49.29 8.52 49.29 8.52 49.19 8.55 49.19 8.55 48.92 8.65 48.65 8.69 48.38 8.69 48.38 8.69 48.38 8.69 48.38 8.69ZM 62.56 5.5C 61.31 5.5 60.23 4.56 60.08 3.28 59.93 1.91 60.91 0.68 62.27 0.52 62.31 0.51 62.34 0.51 62.37 0.5 62.38 0.5 62.39 0.5 62.39 0.5 62.49 0.49 62.58 0.49 62.68 0.49 63.93 0.49 65.01 1.43 65.16 2.71 65.31 4.08 64.32 5.32 62.95 5.47 62.95 5.47 62.85 5.48 62.85 5.48 62.75 5.49 62.66 5.5 62.56 5.5 62.56 5.5 62.56 5.5 62.56 5.5ZM 77.22 5.41C 77.14 5.41 77.06 5.41 76.97 5.4 76.97 5.4 76.87 5.39 76.87 5.39 75.5 5.25 74.49 4.02 74.63 2.65 74.76 1.36 75.84 0.4 77.11 0.4 77.19 0.4 77.27 0.4 77.35 0.41 77.37 0.41 77.39 0.42 77.42 0.42 77.44 0.42 77.46 0.42 77.48 0.43 78.85 0.56 79.85 1.79 79.71 3.16 79.58 4.45 78.49 5.41 77.22 5.41 77.22 5.41 77.22 5.41 77.22 5.41ZM 91.45 8.43C 91.19 8.43 90.92 8.39 90.67 8.31 90.67 8.31 90.57 8.28 90.57 8.28 89.26 7.85 88.54 6.43 88.97 5.12 89.32 4.07 90.29 3.4 91.34 3.4 91.6 3.4 91.86 3.44 92.12 3.52 92.12 3.52 92.13 3.52 92.13 3.53 92.14 3.53 92.15 3.53 92.16 3.53 92.19 3.54 92.22 3.55 92.24 3.56 93.55 4 94.25 5.41 93.82 6.71 93.48 7.76 92.5 8.43 91.45 8.43 91.45 8.43 91.45 8.43 91.45 8.43ZM 104.68 14.44C 104.25 14.44 103.81 14.33 103.41 14.09 103.41 14.09 103.33 14.04 103.33 14.04 102.14 13.34 101.74 11.81 102.44 10.62 102.91 9.83 103.74 9.39 104.6 9.39 105.03 9.39 105.47 9.5 105.87 9.73 105.88 9.74 105.89 9.75 105.9 9.76 105.93 9.77 105.95 9.78 105.97 9.79 107.15 10.5 107.54 12.03 106.84 13.21 106.37 14 105.54 14.44 104.68 14.44 104.68 14.44 104.68 14.44 104.68 14.44ZM 116.34 23.15C 115.73 23.15 115.11 22.93 114.63 22.48 114.63 22.48 114.56 22.41 114.56 22.41 113.55 21.47 113.49 19.89 114.43 18.88 114.92 18.35 115.59 18.08 116.26 18.08 116.87 18.08 117.48 18.3 117.96 18.75 117.96 18.75 117.97 18.75 117.97 18.76 117.99 18.78 118.01 18.8 118.04 18.82 118.04 18.82 118.04 18.82 118.04 18.82 119.05 19.76 119.11 21.34 118.17 22.35 117.67 22.88 117.01 23.15 116.34 23.15 116.34 23.15 116.34 23.15 116.34 23.15ZM 125.86 34.14C 125.07 34.14 124.29 33.77 123.8 33.07 123.8 33.07 123.74 32.98 123.74 32.98 122.96 31.85 123.24 30.29 124.37 29.5 124.81 29.2 125.3 29.06 125.8 29.06 126.59 29.06 127.36 29.43 127.85 30.13 127.85 30.13 127.85 30.14 127.86 30.14 127.86 30.15 127.87 30.16 127.88 30.17 127.89 30.19 127.9 30.2 127.91 30.22 128.7 31.35 128.42 32.91 127.28 33.7 126.85 34 126.35 34.14 125.86 34.14 125.86 34.14 125.86 34.14 125.86 34.14ZM 132.8 46.92C 131.82 46.92 130.88 46.33 130.48 45.37 130.48 45.37 130.45 45.27 130.45 45.27 129.92 44 130.53 42.53 131.81 42.01 132.12 41.88 132.44 41.82 132.76 41.82 133.73 41.82 134.66 42.4 135.06 43.35 135.08 43.39 135.1 43.44 135.11 43.48 135.63 44.75 135.02 46.21 133.75 46.73 133.44 46.86 133.12 46.92 132.8 46.92 132.8 46.92 132.8 46.92 132.8 46.92ZM 136.81 60.89C 135.61 60.89 134.55 60.03 134.34 58.81 134.34 58.81 134.33 58.71 134.33 58.71 134.09 57.35 135 56.06 136.36 55.82 136.51 55.8 136.65 55.79 136.79 55.79 137.98 55.79 139.04 56.64 139.25 57.85 139.26 57.89 139.27 57.94 139.27 57.98 139.5 59.34 138.59 60.62 137.23 60.85 137.09 60.88 136.95 60.89 136.81 60.89 136.81 60.89 136.81 60.89 136.81 60.89ZM 137.72 75.41C 137.68 75.41 137.64 75.41 137.6 75.41 136.22 75.34 135.15 74.17 135.22 72.8 135.22 72.8 135.22 72.69 135.22 72.69 135.28 71.35 136.39 70.3 137.72 70.3 137.75 70.3 137.79 70.3 137.83 70.3 139.2 70.36 140.27 71.52 140.22 72.89 140.22 72.91 140.21 72.92 140.21 72.94 140.21 72.95 140.21 72.97 140.21 72.99 140.21 73.01 140.21 73.02 140.21 73.04 140.14 74.37 139.04 75.41 137.72 75.41 137.72 75.41 137.72 75.41 137.72 75.41ZM 135.5 89.78C 135.28 89.78 135.07 89.75 134.85 89.69 133.52 89.33 132.72 87.96 133.08 86.63 133.08 86.63 133.11 86.53 133.11 86.53 133.41 85.41 134.42 84.67 135.52 84.67 135.74 84.67 135.95 84.7 136.17 84.76 137.5 85.11 138.29 86.48 137.94 87.81 137.93 87.84 137.92 87.88 137.91 87.91 137.91 87.91 137.91 87.92 137.91 87.92 137.61 89.04 136.6 89.78 135.5 89.78 135.5 89.78 135.5 89.78 135.5 89.78ZM 130.22 103.32C 129.83 103.32 129.44 103.23 129.07 103.04 127.84 102.4 127.37 100.89 128 99.66 128 99.66 128.05 99.57 128.05 99.57 128.5 98.72 129.37 98.23 130.27 98.23 130.66 98.23 131.05 98.32 131.42 98.51 132.64 99.14 133.12 100.64 132.5 101.86 132.47 101.91 132.45 101.95 132.43 102 131.98 102.84 131.11 103.32 130.22 103.32 130.22 103.32 130.22 103.32 130.22 103.32ZM 122.14 115.41C 121.58 115.41 121.01 115.22 120.54 114.83 119.48 113.95 119.34 112.37 120.23 111.31 120.23 111.31 120.29 111.23 120.29 111.23 120.79 110.64 121.5 110.33 122.21 110.33 122.78 110.33 123.35 110.52 123.82 110.91 124.88 111.8 125.02 113.37 124.13 114.43 124.12 114.45 124.11 114.46 124.1 114.48 124.08 114.5 124.07 114.51 124.05 114.53 123.56 115.11 122.85 115.41 122.14 115.41 122.14 115.41 122.14 115.41 122.14 115.41ZM 111.67 125.5C 110.92 125.5 110.19 125.17 109.69 124.54 108.85 123.44 109.05 121.87 110.14 121.03 110.14 121.03 110.22 120.96 110.22 120.96 110.67 120.61 111.21 120.44 111.75 120.44 112.5 120.44 113.23 120.77 113.73 121.41 114.57 122.49 114.38 124.06 113.29 124.91 113.29 124.91 113.28 124.92 113.27 124.92 113.26 124.93 113.26 124.93 113.25 124.94 113.23 124.95 113.21 124.97 113.19 124.99 112.73 125.34 112.2 125.5 111.67 125.5 111.67 125.5 111.67 125.5 111.67 125.5ZM 99.28 133.12C 98.35 133.12 97.45 132.6 97.02 131.7 96.43 130.45 96.96 128.96 98.21 128.36 98.21 128.36 98.3 128.32 98.3 128.32 98.65 128.15 99.01 128.08 99.37 128.08 100.31 128.08 101.21 128.6 101.63 129.5 102.23 130.74 101.71 132.22 100.47 132.82 100.45 132.83 100.44 132.84 100.42 132.85 100.4 132.86 100.38 132.87 100.35 132.88 100.01 133.04 99.64 133.12 99.28 133.12 99.28 133.12 99.28 133.12 99.28 133.12ZM 85.55 137.9C 84.41 137.9 83.38 137.12 83.11 135.96 82.8 134.62 83.64 133.27 84.99 132.96 84.99 132.96 85.09 132.94 85.09 132.94 85.28 132.9 85.47 132.88 85.65 132.88 86.79 132.88 87.82 133.66 88.09 134.81 88.4 136.16 87.56 137.5 86.22 137.81 86.19 137.82 86.17 137.82 86.14 137.83 86.13 137.83 86.11 137.84 86.1 137.84 85.91 137.88 85.73 137.9 85.55 137.9 85.55 137.9 85.55 137.9 85.55 137.9Z" fill="rgb(45,39,41)"/></g></svg>