<?xml version="1.0" encoding="utf-8"?>
<svg xmlns="http://www.w3.org/2000/svg"
	xmlns:xlink="http://www.w3.org/1999/xlink"
	width="120px" height="121px" viewBox="0 0 120 121">
<g transform="matrix(0.69 0.00 0.00 0.70 0.00 0.00)"><path fillRule="evenodd" d="M 86.42 174C 86.38 174 86.33 174 86.29 174 84.92 173.99 83.81 172.87 83.81 171.5 83.82 170.12 84.94 169 86.32 169 86.32 169 86.32 169 86.32 169 86.32 169 86.42 169 86.42 169 87.8 169 88.92 170.12 88.92 171.5 88.92 172.88 87.8 174 86.42 174 86.42 174 86.42 174 86.42 174 86.42 174 86.42 174 86.42 174ZM 71.83 172.71C 71.69 172.71 71.54 172.7 71.39 172.67 71.38 172.67 71.36 172.67 71.35 172.66 71.33 172.66 71.3 172.66 71.28 172.65 71.28 172.65 71.28 172.65 71.28 172.65 69.92 172.41 69.02 171.11 69.26 169.75 69.48 168.54 70.54 167.69 71.72 167.69 71.87 167.69 72.02 167.7 72.17 167.73 72.17 167.73 72.27 167.75 72.27 167.75 73.63 167.99 74.53 169.29 74.29 170.65 74.07 171.86 73.02 172.71 71.83 172.71 71.83 172.71 71.83 172.71 71.83 172.71ZM 57.7 168.85C 57.41 168.85 57.12 168.8 56.83 168.7 56.83 168.69 56.83 168.69 56.82 168.69 56.79 168.68 56.76 168.67 56.73 168.66 56.73 168.66 56.73 168.66 56.73 168.66 55.44 168.18 54.78 166.74 55.26 165.44 55.64 164.44 56.59 163.82 57.61 163.82 57.9 163.82 58.19 163.87 58.48 163.97 58.48 163.97 58.58 164.01 58.58 164.01 59.87 164.49 60.53 165.93 60.05 167.23 59.67 168.23 58.72 168.85 57.7 168.85 57.7 168.85 57.7 168.85 57.7 168.85ZM 44.49 162.55C 44.06 162.55 43.62 162.43 43.23 162.2 43.21 162.19 43.19 162.18 43.17 162.17 43.15 162.16 43.14 162.15 43.12 162.14 43.12 162.14 43.12 162.14 43.12 162.14 41.93 161.44 41.54 159.9 42.24 158.72 42.71 157.93 43.54 157.49 44.4 157.49 44.83 157.49 45.27 157.6 45.67 157.84 45.67 157.84 45.76 157.89 45.76 157.89 46.95 158.6 47.34 160.13 46.64 161.32 46.17 162.11 45.34 162.55 44.49 162.55 44.49 162.55 44.49 162.55 44.49 162.55ZM 32.58 154C 32 154 31.42 153.8 30.95 153.4 30.94 153.39 30.93 153.38 30.91 153.36 30.9 153.36 30.89 153.35 30.88 153.34 30.88 153.33 30.87 153.33 30.87 153.33 29.82 152.43 29.71 150.85 30.61 149.8 31.1 149.23 31.8 148.93 32.5 148.93 33.08 148.93 33.66 149.13 34.13 149.54 34.13 149.54 34.21 149.61 34.21 149.61 35.26 150.51 35.38 152.09 34.48 153.13 33.98 153.71 33.28 154 32.58 154 32.58 154 32.58 154 32.58 154ZM 22.35 143.52C 21.63 143.52 20.92 143.21 20.42 142.61 20.39 142.58 20.37 142.55 20.34 142.52 20.34 142.52 20.34 142.52 20.34 142.52 19.47 141.45 19.63 139.87 20.69 139 21.16 138.62 21.72 138.43 22.28 138.43 23 138.43 23.72 138.75 24.21 139.35 24.21 139.35 24.28 139.43 24.28 139.43 25.15 140.5 25 142.08 23.93 142.95 23.46 143.33 22.9 143.52 22.35 143.52 22.35 143.52 22.35 143.52 22.35 143.52ZM 14.08 131.41C 13.21 131.41 12.36 130.95 11.9 130.14 11.89 130.13 11.89 130.12 11.88 130.11 11.87 130.09 11.86 130.06 11.84 130.04 11.17 128.83 11.6 127.31 12.8 126.64 13.19 126.42 13.61 126.32 14.02 126.32 14.9 126.32 15.75 126.78 16.21 127.6 16.21 127.6 16.26 127.69 16.26 127.69 16.93 128.89 16.51 130.42 15.3 131.09 14.92 131.31 14.5 131.41 14.08 131.41 14.08 131.41 14.08 131.41 14.08 131.41ZM 8.04 118.06C 7.01 118.06 6.04 117.42 5.68 116.39 5.67 116.36 5.66 116.33 5.65 116.3 5.65 116.29 5.65 116.29 5.64 116.28 5.19 114.98 5.87 113.56 7.18 113.1 7.45 113 7.73 112.96 8 112.96 9.04 112.96 10 113.6 10.36 114.63 10.36 114.63 10.4 114.73 10.4 114.73 10.86 116.04 10.17 117.46 8.87 117.92 8.59 118.02 8.31 118.06 8.04 118.06 8.04 118.06 8.04 118.06 8.04 118.06ZM 4.41 103.86C 3.21 103.86 2.15 102.99 1.95 101.77 1.94 101.75 1.94 101.74 1.94 101.72 1.93 101.7 1.93 101.68 1.93 101.65 1.71 100.29 2.63 99.01 3.99 98.79 4.13 98.77 4.26 98.76 4.4 98.76 5.6 98.76 6.66 99.63 6.86 100.85 6.86 100.85 6.88 100.96 6.88 100.96 7.1 102.32 6.18 103.6 4.82 103.83 4.68 103.85 4.54 103.86 4.41 103.86 4.41 103.86 4.41 103.86 4.41 103.86ZM 3.28 89.24C 3.28 89.24 3.27 89.24 3.26 89.24 1.88 89.23 0.78 88.1 0.78 86.73 0.78 86.7 0.78 86.68 0.79 86.65 0.79 86.64 0.79 86.63 0.79 86.62 0.79 86.62 0.79 86.61 0.79 86.6 0.8 85.23 1.92 84.13 3.28 84.13 3.29 84.13 3.3 84.13 3.31 84.13 4.69 84.15 5.8 85.28 5.79 86.66 5.79 86.66 5.78 86.76 5.78 86.76 5.77 88.13 4.65 89.24 3.28 89.24 3.28 89.24 3.28 89.24 3.28 89.24ZM 4.66 74.64C 4.51 74.64 4.36 74.63 4.21 74.6 2.85 74.35 1.95 73.05 2.2 71.69 2.21 71.66 2.21 71.63 2.22 71.6 2.22 71.6 2.22 71.58 2.22 71.57 2.45 70.37 3.5 69.54 4.68 69.54 4.83 69.54 4.98 69.55 5.13 69.58 6.49 69.83 7.39 71.13 7.14 72.49 7.14 72.49 7.12 72.59 7.12 72.59 6.9 73.8 5.85 74.64 4.66 74.64 4.66 74.64 4.66 74.64 4.66 74.64ZM 8.53 60.51C 8.24 60.51 7.95 60.46 7.66 60.35 6.38 59.87 5.72 58.45 6.18 57.16 6.2 57.11 6.22 57.07 6.23 57.02 6.61 56.02 7.56 55.41 8.57 55.41 8.86 55.41 9.15 55.46 9.44 55.56 10.74 56.04 11.39 57.48 10.91 58.78 10.91 58.78 10.88 58.88 10.88 58.88 10.5 59.88 9.55 60.51 8.53 60.51 8.53 60.51 8.53 60.51 8.53 60.51ZM 14.8 47.26C 14.37 47.26 13.94 47.15 13.54 46.92 12.35 46.22 11.95 44.69 12.65 43.5 12.65 43.49 12.65 43.49 12.66 43.48 12.67 43.45 12.69 43.42 12.71 43.39 13.18 42.6 14.01 42.17 14.86 42.17 15.29 42.17 15.72 42.28 16.12 42.51 17.31 43.21 17.71 44.74 17.01 45.93 17.01 45.93 16.96 46.02 16.96 46.02 16.5 46.82 15.66 47.26 14.8 47.26 14.8 47.26 14.8 47.26 14.8 47.26ZM 23.28 35.3C 22.7 35.3 22.13 35.11 21.66 34.71 20.61 33.81 20.48 32.24 21.37 31.19 21.39 31.16 21.42 31.13 21.44 31.1 21.94 30.52 22.64 30.22 23.35 30.22 23.92 30.22 24.49 30.42 24.97 30.82 26.02 31.71 26.14 33.29 25.25 34.34 25.25 34.34 25.18 34.42 25.18 34.42 24.69 35 23.98 35.3 23.28 35.3 23.28 35.3 23.28 35.3 23.28 35.3ZM 33.7 24.99C 32.98 24.99 32.26 24.69 31.77 24.09 30.89 23.03 31.04 21.45 32.1 20.57 32.1 20.57 32.11 20.56 32.11 20.56 32.14 20.54 32.17 20.51 32.19 20.49 32.66 20.11 33.22 19.93 33.78 19.93 34.49 19.93 35.21 20.23 35.7 20.83 36.58 21.89 36.43 23.47 35.37 24.35 35.37 24.35 35.29 24.42 35.29 24.42 34.82 24.81 34.26 24.99 33.7 24.99 33.7 24.99 33.7 24.99 33.7 24.99ZM 45.75 16.66C 44.88 16.66 44.03 16.21 43.57 15.4 42.89 14.2 43.31 12.68 44.5 12 44.54 11.97 44.58 11.95 44.62 11.93 45.01 11.71 45.42 11.61 45.84 11.61 46.71 11.61 47.55 12.07 48.01 12.88 48.69 14.08 48.27 15.6 47.07 16.29 47.07 16.29 46.98 16.34 46.98 16.34 46.59 16.56 46.17 16.66 45.75 16.66 45.75 16.66 45.75 16.66 45.75 16.66ZM 59.07 10.59C 58.04 10.59 57.08 9.95 56.71 8.92 56.26 7.62 56.94 6.19 58.24 5.73 58.25 5.73 58.25 5.73 58.25 5.73 58.28 5.72 58.31 5.71 58.33 5.7 58.34 5.7 58.34 5.7 58.35 5.69 58.62 5.6 58.9 5.55 59.17 5.55 60.21 5.55 61.17 6.2 61.53 7.23 61.99 8.53 61.3 9.96 60 10.41 60 10.41 59.9 10.45 59.9 10.45 59.63 10.54 59.35 10.59 59.07 10.59 59.07 10.59 59.07 10.59 59.07 10.59ZM 73.26 6.98C 72.06 6.98 70.99 6.11 70.8 4.88 70.58 3.52 71.5 2.24 72.86 2.02 72.91 2.01 72.95 2 73 1.99 73.12 1.98 73.25 1.97 73.37 1.97 74.58 1.97 75.64 2.84 75.84 4.07 76.06 5.44 75.13 6.72 73.76 6.94 73.76 6.94 73.66 6.95 73.66 6.95 73.53 6.97 73.39 6.98 73.26 6.98 73.26 6.98 73.26 6.98 73.26 6.98ZM 87.99 5.95C 87.97 5.95 87.95 5.95 87.94 5.95 87.94 5.95 87.84 5.95 87.84 5.95 86.46 5.92 85.36 4.79 85.38 3.41 85.4 2.04 86.52 0.95 87.88 0.95 87.89 0.95 87.9 0.95 87.91 0.95 87.92 0.95 87.93 0.95 87.94 0.95 87.95 0.95 87.96 0.95 87.97 0.95 87.99 0.95 88.01 0.95 88.04 0.95 89.41 0.98 90.51 2.12 90.49 3.5 90.46 4.86 89.35 5.95 87.99 5.95 87.99 5.95 87.99 5.95 87.99 5.95ZM 102.55 7.52C 102.39 7.52 102.23 7.5 102.06 7.47 102.06 7.47 101.96 7.45 101.96 7.45 100.61 7.18 99.72 5.87 99.99 4.51 100.23 3.32 101.27 2.5 102.44 2.5 102.6 2.5 102.76 2.51 102.93 2.54 102.95 2.55 102.96 2.55 102.98 2.55 103.01 2.56 103.03 2.56 103.05 2.57 104.4 2.84 105.27 4.15 105 5.5 104.76 6.69 103.72 7.52 102.55 7.52 102.55 7.52 102.55 7.52 102.55 7.52ZM 116.6 11.64C 116.29 11.64 115.98 11.59 115.68 11.47 115.68 11.47 115.59 11.43 115.59 11.43 114.3 10.93 113.67 9.47 114.17 8.19 114.56 7.2 115.5 6.6 116.5 6.6 116.8 6.6 117.11 6.66 117.41 6.78 117.41 6.78 117.42 6.78 117.42 6.78 117.44 6.79 117.47 6.8 117.49 6.81 117.5 6.81 117.51 6.81 117.51 6.82 118.8 7.32 119.43 8.77 118.93 10.06 118.54 11.04 117.59 11.64 116.6 11.64 116.6 11.64 116.6 11.64 116.6 11.64ZM 129.69 18.2C 129.24 18.2 128.79 18.08 128.38 17.83 128.38 17.83 128.29 17.77 128.29 17.77 127.12 17.05 126.75 15.51 127.48 14.33 127.95 13.57 128.77 13.14 129.61 13.14 130.05 13.14 130.49 13.26 130.9 13.51 130.92 13.52 130.94 13.53 130.96 13.54 130.96 13.55 130.96 13.55 130.97 13.55 130.99 13.56 131 13.57 131.02 13.58 132.19 14.31 132.54 15.84 131.82 17.01 131.35 17.78 130.53 18.2 129.69 18.2 129.69 18.2 129.69 18.2 129.69 18.2ZM 141.44 26.96C 140.84 26.96 140.25 26.75 139.77 26.33 139.77 26.33 139.69 26.26 139.69 26.26 138.66 25.34 138.57 23.76 139.49 22.73 139.99 22.18 140.67 21.89 141.36 21.89 141.95 21.89 142.54 22.1 143.01 22.52 143.04 22.54 143.07 22.57 143.09 22.59 143.1 22.59 143.1 22.6 143.1 22.6 144.13 23.52 144.22 25.1 143.3 26.13 142.81 26.68 142.12 26.96 141.44 26.96 141.44 26.96 141.44 26.96 141.44 26.96ZM 151.48 37.64C 150.74 37.64 150.01 37.31 149.52 36.69 149.52 36.69 149.45 36.61 149.45 36.61 148.6 35.52 148.78 33.95 149.86 33.09 150.32 32.73 150.87 32.56 151.41 32.56 152.15 32.56 152.88 32.88 153.37 33.5 153.4 33.53 153.42 33.57 153.45 33.6 154.3 34.69 154.11 36.25 153.03 37.1 152.57 37.46 152.02 37.64 151.48 37.64 151.48 37.64 151.48 37.64 151.48 37.64ZM 159.52 49.89C 158.63 49.89 157.77 49.42 157.32 48.58 157.32 48.58 157.27 48.49 157.27 48.49 156.61 47.27 157.07 45.75 158.28 45.1 158.66 44.9 159.06 44.8 159.47 44.8 160.35 44.8 161.21 45.27 161.66 46.1 161.67 46.11 161.67 46.12 161.68 46.13 161.69 46.15 161.7 46.18 161.71 46.2 161.72 46.21 161.72 46.21 161.72 46.21 162.37 47.43 161.92 48.94 160.7 49.6 160.33 49.8 159.92 49.89 159.52 49.89 159.52 49.89 159.52 49.89 159.52 49.89ZM 165.31 63.36C 164.26 63.36 163.28 62.69 162.93 61.64 162.93 61.64 162.9 61.54 162.9 61.54 162.47 60.23 163.18 58.82 164.49 58.38 164.75 58.3 165.02 58.25 165.28 58.25 166.32 58.25 167.3 58.92 167.65 59.97 167.66 60 167.67 60.04 167.68 60.07 168.12 61.38 167.4 62.8 166.09 63.23 165.83 63.32 165.57 63.36 165.31 63.36 165.31 63.36 165.31 63.36 165.31 63.36ZM 168.67 77.62C 167.45 77.62 166.38 76.73 166.2 75.48 166.2 75.48 166.18 75.38 166.18 75.38 165.98 74.01 166.93 72.74 168.29 72.54 168.42 72.52 168.54 72.52 168.66 72.52 169.88 72.52 170.94 73.4 171.13 74.64 171.13 74.67 171.14 74.69 171.14 74.72 171.14 74.73 171.14 74.75 171.15 74.76 171.35 76.13 170.4 77.4 169.03 77.6 168.91 77.61 168.79 77.62 168.67 77.62 168.67 77.62 168.67 77.62 168.67 77.62ZM 169.53 92.26C 169.51 92.26 169.49 92.26 169.47 92.26 168.09 92.23 167 91.08 167.03 89.7 167.03 89.7 167.04 89.59 167.04 89.59 167.07 88.23 168.18 87.16 169.54 87.16 169.56 87.16 169.58 87.16 169.6 87.16 170.98 87.19 172.07 88.34 172.03 89.72 172.03 89.76 172.03 89.79 172.03 89.83 172 91.19 170.88 92.26 169.53 92.26 169.53 92.26 169.53 92.26 169.53 92.26ZM 167.89 106.83C 167.73 106.83 167.56 106.82 167.4 106.78 166.04 106.51 165.17 105.19 165.44 103.84 165.44 103.84 165.46 103.74 165.46 103.74 165.7 102.55 166.74 101.73 167.91 101.73 168.07 101.73 168.24 101.74 168.4 101.78 169.76 102.05 170.63 103.36 170.36 104.72 170.36 104.72 170.36 104.72 170.36 104.73 170.35 104.75 170.35 104.77 170.35 104.79 170.34 104.8 170.34 104.81 170.34 104.83 170.1 106.01 169.06 106.83 167.89 106.83 167.89 106.83 167.89 106.83 167.89 106.83ZM 163.75 120.89C 163.45 120.89 163.14 120.84 162.84 120.72 161.56 120.22 160.92 118.77 161.43 117.48 161.43 117.48 161.46 117.38 161.46 117.38 161.85 116.4 162.79 115.79 163.79 115.79 164.1 115.79 164.4 115.85 164.7 115.96 165.99 116.47 166.62 117.91 166.12 119.2 166.12 119.21 166.12 119.22 166.11 119.22 166.11 119.23 166.11 119.23 166.11 119.23 166.1 119.25 166.1 119.26 166.09 119.27 166.09 119.29 166.08 119.3 166.08 119.32 165.69 120.3 164.75 120.89 163.75 120.89 163.75 120.89 163.75 120.89 163.75 120.89ZM 157.24 134.02C 156.79 134.02 156.34 133.9 155.94 133.65 154.76 132.93 154.39 131.39 155.1 130.22 155.1 130.22 155.16 130.13 155.16 130.13 155.63 129.35 156.45 128.93 157.3 128.93 157.74 128.93 158.19 129.05 158.59 129.29 159.77 130.01 160.14 131.53 159.44 132.71 159.43 132.73 159.42 132.75 159.41 132.77 159.39 132.78 159.38 132.8 159.37 132.82 158.9 133.59 158.08 134.02 157.24 134.02 157.24 134.02 157.24 134.02 157.24 134.02ZM 148.54 145.82C 147.96 145.82 147.37 145.61 146.89 145.19 145.86 144.28 145.76 142.7 146.67 141.67 146.67 141.67 146.74 141.59 146.74 141.59 147.23 141.03 147.92 140.74 148.62 140.74 149.2 140.74 149.79 140.94 150.27 141.36 151.3 142.27 151.4 143.85 150.49 144.89 150.47 144.92 150.44 144.94 150.42 144.97 149.93 145.53 149.24 145.82 148.54 145.82 148.54 145.82 148.54 145.82 148.54 145.82ZM 137.94 155.93C 137.2 155.93 136.48 155.61 135.98 154.99 135.12 153.91 135.3 152.34 136.38 151.48 136.38 151.48 136.46 151.41 136.46 151.41 136.92 151.04 137.47 150.86 138.02 150.86 138.75 150.86 139.48 151.18 139.97 151.8 140.83 152.87 140.66 154.44 139.6 155.3 139.56 155.33 139.53 155.36 139.5 155.38 139.03 155.75 138.48 155.93 137.94 155.93 137.94 155.93 137.94 155.93 137.94 155.93ZM 125.73 164.03C 124.85 164.03 123.99 163.56 123.54 162.73 122.88 161.51 123.33 160 124.54 159.34 124.54 159.34 124.63 159.29 124.63 159.29 125.01 159.08 125.42 158.98 125.82 158.98 126.71 158.98 127.57 159.45 128.02 160.29 128.68 161.5 128.23 163.02 127.02 163.68 127.01 163.69 126.99 163.69 126.97 163.7 126.97 163.7 126.97 163.71 126.97 163.71 126.96 163.71 126.94 163.72 126.93 163.73 126.55 163.94 126.14 164.03 125.73 164.03 125.73 164.03 125.73 164.03 125.73 164.03ZM 112.29 169.85C 111.24 169.85 110.27 169.19 109.92 168.14 109.49 166.83 110.2 165.41 111.51 164.98 111.51 164.98 111.61 164.95 111.61 164.95 111.87 164.86 112.13 164.82 112.39 164.82 113.44 164.82 114.42 165.48 114.77 166.53 115.2 167.84 114.49 169.26 113.18 169.69 113.17 169.7 113.16 169.7 113.14 169.7 113.14 169.7 113.14 169.71 113.14 169.71 113.13 169.71 113.12 169.71 113.1 169.72 113.09 169.72 113.09 169.72 113.08 169.73 112.82 169.81 112.55 169.85 112.29 169.85 112.29 169.85 112.29 169.85 112.29 169.85ZM 98.03 173.19C 96.81 173.19 95.74 172.29 95.56 171.04 95.37 169.67 96.32 168.41 97.69 168.21 97.69 168.21 97.79 168.2 97.79 168.2 97.91 168.18 98.03 168.17 98.14 168.17 99.37 168.17 100.44 169.07 100.62 170.32 100.81 171.68 99.87 172.94 98.51 173.14 98.46 173.15 98.41 173.16 98.36 173.17 98.25 173.18 98.14 173.19 98.03 173.19 98.03 173.19 98.03 173.19 98.03 173.19Z" fill="rgb(45,39,41)"/></g></svg>