<?xml version="1.0" encoding="utf-8"?>
<svg xmlns="http://www.w3.org/2000/svg"
	xmlns:xlink="http://www.w3.org/1999/xlink"
	width="67px" height="67px" viewBox="0 0 67 67">
<g transform="matrix(0.70 0.00 0.00 0.70 0.00 0.00)"><path fillRule="evenodd" d="M 48.45 96C 48.41 96 48.38 96 48.34 96 46.96 96 45.85 94.88 45.85 93.5 45.85 92.12 46.97 91 48.35 91 48.35 91 48.35 91 48.35 91 48.35 91 48.45 91 48.45 91 49.83 91 50.95 92.12 50.95 93.5 50.95 94.88 49.84 96 48.46 96 48.46 96 48.45 96 48.45 96 48.45 96 48.45 96 48.45 96ZM 34.38 93.76C 34.12 93.76 33.85 93.72 33.59 93.63 33.57 93.62 33.55 93.62 33.53 93.61 33.52 93.61 33.51 93.6 33.5 93.6 33.5 93.6 33.49 93.6 33.49 93.6 32.18 93.16 31.47 91.75 31.9 90.44 32.25 89.39 33.23 88.72 34.28 88.72 34.54 88.72 34.8 88.76 35.06 88.85 35.06 88.85 35.16 88.88 35.16 88.88 36.47 89.31 37.18 90.73 36.75 92.04 36.4 93.09 35.43 93.76 34.38 93.76 34.38 93.76 34.38 93.76 34.38 93.76ZM 21.72 87.21C 21.2 87.21 20.68 87.05 20.23 86.71 20.22 86.71 20.22 86.71 20.21 86.7 20.2 86.69 20.19 86.68 20.18 86.68 20.17 86.67 20.16 86.66 20.14 86.65 19.03 85.83 18.8 84.26 19.62 83.15 20.12 82.49 20.87 82.14 21.64 82.14 22.15 82.14 22.68 82.3 23.12 82.64 23.12 82.64 23.2 82.69 23.2 82.69 24.31 83.52 24.55 85.08 23.73 86.19 23.24 86.86 22.48 87.21 21.72 87.21 21.72 87.21 21.72 87.21 21.72 87.21ZM 11.72 77.03C 10.94 77.03 10.17 76.67 9.69 75.98 9.68 75.97 9.68 75.97 9.68 75.97 9.66 75.94 9.64 75.92 9.63 75.9 9.63 75.89 9.62 75.89 9.62 75.89 8.82 74.76 9.09 73.2 10.22 72.41 10.65 72.09 11.16 71.95 11.66 71.95 12.44 71.95 13.22 72.31 13.7 73 13.7 73 13.76 73.08 13.76 73.08 14.56 74.21 14.3 75.77 13.17 76.57 12.73 76.88 12.23 77.03 11.72 77.03 11.72 77.03 11.72 77.03 11.72 77.03ZM 5.39 64.26C 4.33 64.26 3.35 63.57 3.01 62.51 3.01 62.49 3 62.48 3 62.46 2.99 62.45 2.99 62.44 2.99 62.42 2.98 62.42 2.98 62.42 2.98 62.42 2.98 62.41 2.98 62.4 2.98 62.39 2.57 61.07 3.31 59.67 4.63 59.27 4.87 59.19 5.12 59.16 5.36 59.16 6.43 59.16 7.42 59.85 7.75 60.92 7.75 60.92 7.78 61.02 7.78 61.02 8.19 62.33 7.45 63.74 6.13 64.14 5.89 64.22 5.64 64.26 5.39 64.26 5.39 64.26 5.39 64.26 5.39 64.26ZM 3.38 50.14C 3.37 50.14 3.35 50.14 3.34 50.14 1.96 50.12 0.86 48.98 0.88 47.6 0.88 47.59 0.88 47.58 0.88 47.57 0.88 47.53 0.88 47.5 0.88 47.47 0.92 46.11 2.02 45.03 3.38 45.03 3.39 45.03 3.41 45.03 3.42 45.03 4.8 45.06 5.9 46.2 5.88 47.58 5.88 47.58 5.88 47.68 5.88 47.68 5.86 49.04 4.74 50.14 3.38 50.14 3.38 50.14 3.38 50.14 3.38 50.14ZM 5.83 36.09C 5.56 36.09 5.29 36.05 5.02 35.95 3.71 35.5 3.02 34.08 3.47 32.78 3.47 32.77 3.48 32.76 3.48 32.76 3.49 32.72 3.5 32.69 3.51 32.66 3.88 31.63 4.84 30.99 5.87 30.99 6.14 30.99 6.41 31.04 6.69 31.13 7.99 31.58 8.68 33.01 8.23 34.31 8.23 34.31 8.2 34.41 8.2 34.41 7.84 35.44 6.87 36.09 5.83 36.09 5.83 36.09 5.83 36.09 5.83 36.09ZM 12.56 23.52C 12.03 23.52 11.5 23.35 11.04 23.01 9.95 22.18 9.73 20.62 10.56 19.52 10.58 19.49 10.6 19.46 10.62 19.44 10.63 19.43 10.63 19.43 10.64 19.42 11.13 18.78 11.87 18.44 12.62 18.44 13.15 18.44 13.68 18.6 14.14 18.95 15.23 19.79 15.45 21.36 14.61 22.46 14.61 22.46 14.55 22.53 14.55 22.53 14.06 23.18 13.31 23.52 12.56 23.52 12.56 23.52 12.56 23.52 12.56 23.52ZM 22.87 13.66C 22.07 13.66 21.29 13.28 20.81 12.58 20.02 11.45 20.31 9.89 21.44 9.11 21.48 9.08 21.51 9.06 21.55 9.03 21.98 8.74 22.47 8.6 22.95 8.6 23.74 8.6 24.52 8.98 25.01 9.68 25.79 10.82 25.5 12.38 24.37 13.16 24.37 13.16 24.29 13.22 24.29 13.22 23.85 13.52 23.36 13.66 22.87 13.66 22.87 13.66 22.87 13.66 22.87 13.66ZM 35.72 7.51C 34.64 7.51 33.64 6.81 33.32 5.72 32.93 4.39 33.69 3 35.01 2.62 35.05 2.6 35.09 2.59 35.13 2.58 35.36 2.51 35.6 2.48 35.82 2.48 36.91 2.48 37.9 3.19 38.22 4.28 38.61 5.61 37.85 7 36.52 7.38 36.52 7.38 36.43 7.41 36.43 7.41 36.19 7.48 35.96 7.51 35.72 7.51 35.72 7.51 35.72 7.51 35.72 7.51ZM 49.97 5.71C 49.94 5.71 49.91 5.71 49.89 5.71 49.89 5.71 49.79 5.71 49.79 5.71 48.41 5.66 47.32 4.51 47.37 3.13 47.41 1.78 48.52 0.71 49.86 0.71 49.89 0.71 49.91 0.71 49.94 0.71 49.95 0.71 49.96 0.71 49.96 0.71 49.97 0.71 49.98 0.71 49.99 0.71 49.99 0.71 49.99 0.71 49.99 0.71 50.01 0.71 50.03 0.71 50.06 0.71 51.44 0.76 52.51 1.91 52.47 3.29 52.42 4.65 51.31 5.71 49.97 5.71 49.97 5.71 49.97 5.71 49.97 5.71ZM 63.96 8.43C 63.67 8.43 63.38 8.38 63.1 8.28 63.1 8.28 63.01 8.24 63.01 8.24 61.71 7.77 61.04 6.33 61.51 5.04 61.88 4.02 62.84 3.39 63.86 3.39 64.15 3.39 64.44 3.44 64.72 3.55 64.73 3.55 64.75 3.56 64.76 3.56 64.79 3.57 64.81 3.58 64.83 3.59 66.12 4.06 66.78 5.5 66.31 6.79 65.94 7.8 64.98 8.43 63.96 8.43 63.96 8.43 63.96 8.43 63.96 8.43ZM 76.39 15.4C 75.85 15.4 75.3 15.23 74.84 14.86 74.84 14.86 74.76 14.8 74.76 14.8 73.68 13.95 73.49 12.37 74.35 11.29 74.84 10.66 75.57 10.34 76.31 10.34 76.85 10.34 77.4 10.51 77.86 10.88 77.86 10.88 77.87 10.89 77.87 10.89 77.9 10.91 77.93 10.93 77.95 10.95 79.03 11.81 79.21 13.37 78.35 14.45 77.86 15.08 77.13 15.4 76.39 15.4 76.39 15.4 76.39 15.4 76.39 15.4ZM 86.04 25.91C 85.23 25.91 84.44 25.51 83.96 24.79 83.96 24.79 83.9 24.71 83.9 24.71 83.14 23.56 83.45 22 84.6 21.24 85.03 20.95 85.51 20.82 85.98 20.82 86.79 20.82 87.58 21.21 88.06 21.92 88.08 21.96 88.11 22.01 88.14 22.05 88.88 23.19 88.57 24.73 87.42 25.49 87 25.77 86.52 25.91 86.04 25.91 86.04 25.91 86.04 25.91 86.04 25.91ZM 91.94 38.89C 90.84 38.89 89.83 38.16 89.52 37.04 89.52 37.04 89.5 36.95 89.5 36.95 89.13 35.62 89.91 34.24 91.24 33.87 91.47 33.81 91.69 33.78 91.91 33.78 93 33.78 94 34.5 94.31 35.61 94.32 35.64 94.33 35.67 94.34 35.7 94.34 35.71 94.34 35.72 94.35 35.73 94.71 37.06 93.93 38.43 92.6 38.8 92.38 38.86 92.15 38.89 91.94 38.89 91.94 38.89 91.94 38.89 91.94 38.89ZM 93.48 53.07C 93.44 53.07 93.4 53.06 93.36 53.06 91.98 53 90.92 51.82 90.98 50.44 90.98 50.44 90.99 50.35 90.99 50.35 91.05 49.01 92.16 47.96 93.48 47.96 93.52 47.96 93.56 47.96 93.6 47.96 94.98 48.03 96.04 49.2 95.98 50.58 95.98 50.58 95.98 50.59 95.98 50.59 95.98 50.63 95.98 50.67 95.97 50.71 95.9 52.04 94.8 53.07 93.48 53.07 93.48 53.07 93.48 53.07 93.48 53.07ZM 90.56 67.02C 90.26 67.02 89.96 66.97 89.66 66.85 88.37 66.36 87.73 64.91 88.22 63.62 88.22 63.62 88.25 63.53 88.25 63.53 88.64 62.53 89.59 61.92 90.59 61.92 90.89 61.92 91.19 61.97 91.48 62.09 92.77 62.57 93.41 64.01 92.93 65.29 92.92 65.33 92.91 65.36 92.89 65.4 92.89 65.41 92.89 65.41 92.89 65.41 92.51 66.41 91.56 67.02 90.56 67.02 90.56 67.02 90.56 67.02 90.56 67.02ZM 83.41 79.36C 82.86 79.36 82.3 79.17 81.83 78.8 80.76 77.93 80.6 76.35 81.47 75.28 81.47 75.28 81.53 75.2 81.53 75.2 82.03 74.59 82.75 74.28 83.48 74.28 84.03 74.28 84.59 74.46 85.05 74.83 86.12 75.7 86.29 77.26 85.43 78.34 85.4 78.37 85.38 78.4 85.35 78.43 85.35 78.43 85.35 78.43 85.35 78.43 84.86 79.04 84.14 79.36 83.41 79.36 83.41 79.36 83.41 79.36 83.41 79.36ZM 72.78 88.87C 71.96 88.87 71.16 88.46 70.68 87.72 69.93 86.56 70.27 85.01 71.43 84.26 71.43 84.26 71.51 84.21 71.51 84.21 71.93 83.94 72.4 83.81 72.87 83.81 73.69 83.81 74.49 84.21 74.97 84.95 75.72 86.11 75.39 87.65 74.23 88.4 74.2 88.43 74.16 88.45 74.13 88.47 73.71 88.74 73.24 88.87 72.78 88.87 72.78 88.87 72.78 88.87 72.78 88.87ZM 59.72 94.58C 58.61 94.58 57.6 93.83 57.31 92.7 56.96 91.37 57.76 90 59.1 89.66 59.1 89.66 59.2 89.63 59.2 89.63 59.41 89.58 59.62 89.55 59.83 89.55 60.94 89.55 61.95 90.3 62.25 91.42 62.59 92.76 61.8 94.12 60.46 94.47 60.46 94.47 60.44 94.47 60.44 94.48 60.42 94.48 60.4 94.49 60.38 94.49 60.37 94.49 60.36 94.5 60.35 94.5 60.14 94.55 59.93 94.58 59.72 94.58 59.72 94.58 59.72 94.58 59.72 94.58Z" fill="rgb(45,39,41)"/></g></svg>