<svg xmlns="http://www.w3.org/2000/svg" width="139" height="141" viewBox="0 0 139 141"><path d="M69.706 141.4h-.091a1.75 1.75 0 0 1 .014-3.5h.077a1.75 1.75 0 0 1 0 3.5zm-10.269-.777c-.084 0-.175-.007-.259-.021-.021 0-.042-.007-.063-.007h-.007c-.007-.007-.014-.007-.021-.007a1.744 1.744 0 0 1-1.456-1.995 1.752 1.752 0 0 1 1.995-1.463l.07.014a1.75 1.75 0 1 1-.259 3.479zm-10.031-2.338c-.175 0-.357-.021-.532-.077-.021-.007-.049-.021-.07-.028a1.74 1.74 0 0 1-1.141-2.191 1.75 1.75 0 0 1 2.198-1.141l.07.021a1.76 1.76 0 0 1 1.141 2.198 1.752 1.752 0 0 1-1.666 1.218zm-9.555-3.843c-.259 0-.525-.056-.77-.175-.014-.007-.021-.014-.035-.014 0-.007-.007-.007-.014-.007-.014-.014-.028-.014-.042-.028a1.742 1.742 0 0 1-.777-2.331 1.745 1.745 0 0 1 2.345-.798l.063.035a1.752 1.752 0 0 1 .798 2.345 1.751 1.751 0 0 1-1.568.973zm-8.862-5.25c-.35 0-.7-.105-1.008-.322l-.007-.007-.063-.042a1.747 1.747 0 0 1-.413-2.429 1.73 1.73 0 0 1 1.428-.749c.35 0 .7.105 1.008.322l.056.042a1.751 1.751 0 0 1-1.001 3.185zm-7.966-6.538c-.434 0-.875-.161-1.211-.483l-.007-.007c-.014-.014-.028-.021-.042-.035 0-.007 0-.007-.007-.014a1.747 1.747 0 0 1 1.211-3.01c.434 0 .868.161 1.211.483l.049.049a1.75 1.75 0 0 1-1.204 3.017zm-6.902-7.651a1.746 1.746 0 0 1-1.379-.672c-.021-.028-.042-.049-.056-.077a1.74 1.74 0 0 1 .315-2.443 1.743 1.743 0 0 1 2.457.315l.042.056a1.75 1.75 0 0 1-.308 2.457c-.322.245-.7.364-1.071.364zm-5.684-8.596a1.754 1.754 0 0 1-1.519-.882c-.014-.035-.035-.063-.049-.098a1.746 1.746 0 0 1 .679-2.366c.273-.147.56-.224.854-.224.609 0 1.211.329 1.526.903l.035.063a1.747 1.747 0 0 1-1.526 2.604zm-4.333-9.352c-.7 0-1.365-.427-1.631-1.127-.014-.028-.021-.056-.035-.084a1.75 1.75 0 0 1 1.638-2.359c.714 0 1.379.434 1.645 1.134l.021.07a1.745 1.745 0 0 1-1.638 2.366zM3.22 87.164a1.755 1.755 0 0 1-1.708-1.386v-.014c-.007-.021-.007-.042-.014-.063a1.745 1.745 0 0 1 1.351-2.072c.119-.028.245-.042.364-.042.805 0 1.533.567 1.708 1.393l.014.07a1.745 1.745 0 0 1-1.351 2.072 1.57 1.57 0 0 1-.364.042zm-1.372-10.22a1.748 1.748 0 0 1-1.743-1.645v-.014c0-.028-.007-.049-.007-.077a1.749 1.749 0 0 1 1.645-1.834h.105c.917 0 1.694.714 1.75 1.645v.077a1.752 1.752 0 0 1-1.645 1.848h-.105zm.147-10.311c-.049 0-.098 0-.154-.007a1.746 1.746 0 0 1-1.589-1.883c0-.028.007-.063.007-.091a1.75 1.75 0 0 1 1.743-1.589 1.746 1.746 0 0 1 1.743 1.904l-.007.07a1.75 1.75 0 0 1-1.743 1.596zm1.666-10.171a1.745 1.745 0 0 1-1.708-2.156l.021-.077a1.755 1.755 0 0 1 2.114-1.288 1.753 1.753 0 0 1 1.288 2.114l-.021.07a1.747 1.747 0 0 1-1.694 1.337zm3.157-9.807c-.217 0-.441-.042-.658-.126a1.75 1.75 0 0 1-.959-2.282c0-.014.007-.021.014-.035v-.007c.007-.007.007-.021.014-.028a1.747 1.747 0 0 1 2.282-.959A1.75 1.75 0 0 1 8.47 45.5l-.028.07a1.75 1.75 0 0 1-1.624 1.085zm4.599-9.219c-.308 0-.616-.084-.896-.252a1.74 1.74 0 0 1-.609-2.394c.007-.021.021-.035.028-.049.007-.007.007-.014.014-.021a1.731 1.731 0 0 1 2.394-.602 1.748 1.748 0 0 1 .609 2.401l-.035.063a1.76 1.76 0 0 1-1.505.854zm5.922-8.435a1.744 1.744 0 0 1-1.351-2.856c.014-.028.035-.049.056-.07.343-.42.84-.63 1.344-.63a1.752 1.752 0 0 1 1.351 2.863l-.049.056c-.343.42-.847.637-1.351.637zm7.119-7.455c-.483 0-.959-.196-1.302-.574a1.749 1.749 0 0 1 .126-2.471l.014-.014c.021-.021.035-.035.056-.049a1.76 1.76 0 0 1 1.162-.441c.476 0 .952.196 1.295.581a1.749 1.749 0 0 1-.126 2.471l-.056.049a1.75 1.75 0 0 1-1.169.448zm8.148-6.3c-.567 0-1.127-.28-1.463-.791a1.745 1.745 0 0 1 .567-2.464 1.753 1.753 0 0 1 2.422.504c.532.805.308 1.89-.504 2.422l-.056.042c-.301.196-.63.287-.966.287zm9.009-4.998a1.742 1.742 0 0 1-1.589-1.022 1.746 1.746 0 0 1 .854-2.317c.007 0 .014-.007.021-.007a.21.21 0 0 0 .056-.028c.231-.105.483-.154.728-.154a1.75 1.75 0 0 1 .728 3.339l-.07.028a1.692 1.692 0 0 1-.728.161zm9.66-3.563a1.747 1.747 0 0 1-1.68-1.274 1.745 1.745 0 0 1 1.19-2.156l.07-.021h.014a1.747 1.747 0 0 1 2.163 1.204 1.753 1.753 0 0 1-1.211 2.163l-.07.021a1.814 1.814 0 0 1-.476.063zm10.094-2.037a1.752 1.752 0 0 1-1.736-1.54 1.75 1.75 0 0 1 1.526-1.953h.014c.028 0 .049-.007.077-.007.063-.007.133-.014.196-.014.875 0 1.624.651 1.736 1.54a1.744 1.744 0 0 1-1.526 1.946l-.07.014c-.077.007-.147.014-.217.014zm10.367-.483h-.049l-.077-.007a1.745 1.745 0 0 1-1.694-1.799A1.738 1.738 0 0 1 71.659.665H71.806c.959.035 1.708.84 1.68 1.799a1.75 1.75 0 0 1-1.75 1.701zM81.984 5.25c-.105 0-.217-.007-.322-.028l-.07-.014a1.75 1.75 0 0 1-1.407-2.037 1.745 1.745 0 0 1 2.03-1.407.41.41 0 0 0 .091.014 1.752 1.752 0 0 1-.322 3.472zm9.947 2.639c-.189 0-.385-.035-.574-.098l-.07-.028a1.753 1.753 0 0 1-1.078-2.226 1.756 1.756 0 0 1 1.652-1.176c.189 0 .385.035.574.098h.007c.007.007.021.007.028.014h.007a.1.1 0 0 0 .042.014 1.752 1.752 0 0 1-.588 3.402zm9.436 4.13c-.28 0-.56-.07-.819-.203l-.07-.035a1.755 1.755 0 0 1-.721-2.366 1.742 1.742 0 0 1 2.359-.728c.007 0 .014.007.021.007a.21.21 0 0 0 .056.028 1.747 1.747 0 0 1 .721 2.366 1.75 1.75 0 0 1-1.547.931zm8.701 5.516c-.364 0-.735-.112-1.05-.343l-.056-.049a1.746 1.746 0 0 1 1.043-3.15c.364 0 .728.112 1.036.336a.153.153 0 0 0 .035.028c.007.007.021.014.035.028a1.746 1.746 0 0 1-1.043 3.15zm7.77 6.769c-.455 0-.903-.175-1.246-.518l-.049-.056a1.747 1.747 0 0 1 .014-2.471 1.711 1.711 0 0 1 1.225-.511c.455 0 .903.175 1.246.518.007.007.007.007.007.014.021.014.035.035.056.049a1.753 1.753 0 0 1-.021 2.471 1.761 1.761 0 0 1-1.232.504zm6.671 7.854a1.751 1.751 0 0 1-1.414-.721l-.042-.056a1.756 1.756 0 0 1 1.414-2.786c.539 0 1.071.252 1.414.721.007.007.007.014.014.021.014.014.021.028.035.049.56.777.392 1.869-.392 2.436a1.754 1.754 0 0 1-1.029.336zm5.425 8.764c-.63 0-1.239-.35-1.554-.945l-.028-.063a1.75 1.75 0 0 1 1.547-2.562c.63 0 1.239.343 1.554.938 0 .007.007.014.007.021l.028.049a1.747 1.747 0 0 1-.742 2.359 1.788 1.788 0 0 1-.812.203zm4.053 9.471a1.755 1.755 0 0 1-1.659-1.183l-.021-.07a1.752 1.752 0 0 1 1.092-2.226c.189-.063.378-.091.567-.091a1.74 1.74 0 0 1 1.652 1.183c.007.021.014.049.028.07a1.747 1.747 0 0 1-1.092 2.219c-.189.07-.378.098-.567.098zm2.59 9.975a1.753 1.753 0 0 1-1.722-1.442l-.014-.07a1.75 1.75 0 0 1 1.722-2.065c.826 0 1.561.588 1.715 1.428.007.014.007.035.014.049 0 .014 0 .021.007.035a1.76 1.76 0 0 1-1.414 2.037c-.105.014-.21.028-.308.028zm1.071 10.248a1.753 1.753 0 0 1-1.75-1.694v-.077a1.745 1.745 0 0 1 1.694-1.799h.056c.938 0 1.715.742 1.75 1.694v.077a1.745 1.745 0 0 1-1.694 1.799h-.056zm-.441 10.304c-.063 0-.133 0-.203-.014a1.748 1.748 0 0 1-1.533-1.939l.007-.07a1.753 1.753 0 0 1 1.736-1.554c.07 0 .133.007.203.014a1.749 1.749 0 0 1 1.54 1.925c-.007.035-.007.07-.014.098a1.747 1.747 0 0 1-1.736 1.54zm-1.96 10.122a1.749 1.749 0 0 1-1.687-2.212l.014-.07a1.76 1.76 0 0 1 1.694-1.295c.147 0 .301.021.455.063a1.74 1.74 0 0 1 1.232 2.135c0 .014-.007.028-.007.035 0 .007-.007.014-.007.021 0 .007 0 .014-.007.021v.007a1.754 1.754 0 0 1-1.687 1.295zm-3.451 9.709c-.238 0-.476-.049-.707-.154a1.747 1.747 0 0 1-.896-2.31l.028-.063a1.75 1.75 0 0 1 1.603-1.043 1.747 1.747 0 0 1 1.603 2.45c-.007.021-.014.035-.021.049 0 .007 0 .007-.007.014 0 .007-.007.014-.007.021a1.753 1.753 0 0 1-1.596 1.036zm-4.872 9.079c-.322 0-.644-.091-.938-.273a1.752 1.752 0 0 1-.532-2.415l.035-.063a1.758 1.758 0 0 1 1.484-.812 1.753 1.753 0 0 1 1.456 2.716c-.007.014-.014.021-.028.035a1.737 1.737 0 0 1-1.477.812zm-6.167 8.253a1.745 1.745 0 0 1-1.316-2.898l.042-.056a1.75 1.75 0 0 1 1.323-.602 1.745 1.745 0 0 1 1.33 2.884c-.021.028-.042.049-.063.077a1.742 1.742 0 0 1-1.316.595zm-7.329 7.238a1.748 1.748 0 0 1-1.134-3.08l.056-.049a1.739 1.739 0 0 1 2.464.203c.63.735.539 1.834-.196 2.464-.007.007-.014.014-.021.014-.014.014-.028.021-.042.035-.329.28-.728.413-1.127.413zm-8.337 6.062a1.75 1.75 0 0 1-.917-3.241l.056-.042a1.758 1.758 0 0 1 2.415.574c.504.812.252 1.89-.56 2.401l-.042.021a1.698 1.698 0 0 1-.952.287zm-9.156 4.718a1.747 1.747 0 0 1-.679-3.36l.07-.028a1.743 1.743 0 0 1 2.289.931 1.743 1.743 0 0 1-.924 2.289c-.007.007-.014.007-.028.014-.007 0-.007.007-.014.007-.014.007-.021.007-.035.014a1.777 1.777 0 0 1-.679.133zm-9.765 3.276a1.746 1.746 0 0 1-1.694-1.33 1.747 1.747 0 0 1 1.267-2.121l.07-.021c.147-.035.287-.049.434-.049a1.752 1.752 0 0 1 .441 3.444c-.021 0-.028.007-.042.007-.021.007-.035.007-.049.014-.14.035-.287.056-.427.056zm-10.15 1.729a1.749 1.749 0 0 1-1.743-1.582 1.752 1.752 0 0 1 1.582-1.911l.07-.007c.056 0 .112-.007.168-.007a1.76 1.76 0 0 1 1.743 1.589 1.75 1.75 0 0 1-1.582 1.904c-.014 0-.021 0-.035.007h-.049c-.056.007-.105.007-.154.007z" fill="#2D2729"/></svg>