<svg xmlns="http://www.w3.org/2000/svg" width="98" height="97" viewBox="0 0 98 97"><path d="M49.21 96.345c-.014 0-.035 0-.049-.007h-.028c-.966 0-1.75-.773-1.75-1.725 0-.952.784-1.725 1.75-1.725l.077.007c.091 0 .182.007.273.02.084-.02.175-.027.273-.027H49.847c.959 0 1.736.759 1.75 1.704.014.952-.756 1.732-1.722 1.746h-.105c-.091 0-.182-.007-.266-.02a2.118 2.118 0 0 1-.294.027zm-10.122-1.07c-.119 0-.245-.014-.364-.041-.014 0-.021 0-.035-.007-.021 0-.035-.007-.056-.007a1.722 1.722 0 0 1-1.33-2.056 1.743 1.743 0 0 1 2.079-1.318l.07.014c.945.207 1.547 1.124 1.337 2.056a1.735 1.735 0 0 1-1.701 1.36zm-9.66-3.18a1.943 1.943 0 0 1-.721-.16c-.007 0-.014-.006-.021-.013-.021-.007-.035-.014-.056-.02a1.716 1.716 0 0 1-.854-2.292c.294-.628.931-1 1.589-1 .245 0 .497.048.735.158l.063.028c.875.4 1.26 1.428.854 2.29a1.743 1.743 0 0 1-1.589 1.008zm-8.729-5.155c-.364 0-.735-.117-1.043-.345l-.084-.062a1.706 1.706 0 0 1-.329-2.408 1.762 1.762 0 0 1 2.45-.331l.056.041c.777.573.924 1.656.343 2.415-.343.449-.868.69-1.393.69zm-7.42-6.88c-.49 0-.98-.206-1.33-.6-.014-.02-.028-.034-.042-.055l-.007-.007a1.702 1.702 0 0 1 .196-2.429 1.768 1.768 0 0 1 1.134-.413c.497 0 .987.206 1.33.607l.049.048a1.71 1.71 0 0 1-.189 2.436 1.772 1.772 0 0 1-1.141.414zm-5.754-8.272a1.755 1.755 0 0 1-1.533-.904c-.014-.014-.021-.035-.028-.049a.052.052 0 0 1-.014-.027 1.707 1.707 0 0 1 .714-2.332 1.761 1.761 0 0 1 2.373.704l.028.061a1.71 1.71 0 0 1-.714 2.34 1.765 1.765 0 0 1-.826.207zm-3.808-9.302a1.75 1.75 0 0 1-1.68-1.262l-.021-.07a1.714 1.714 0 0 1 1.211-2.125c.154-.048.315-.069.469-.069.77 0 1.47.504 1.687 1.263l.021.07a1.72 1.72 0 0 1-1.211 2.124 1.656 1.656 0 0 1-.476.07zm-1.673-9.894c-.924 0-1.694-.71-1.743-1.629-.007-.027-.007-.055-.007-.076-.056-.952.686-1.766 1.652-1.821h.098c.917 0 1.694.71 1.743 1.628l.007.07c.056.951-.686 1.766-1.652 1.82-.035 0-.063.008-.098.008zm.518-10.026c-.098 0-.189-.007-.28-.02-.952-.152-1.603-1.029-1.456-1.967l.021-.097a1.741 1.741 0 0 1 1.722-1.442c.091 0 .182.007.28.02.952.153 1.603 1.043 1.449 1.981l-.014.07c-.133.848-.882 1.455-1.722 1.455zm2.681-9.674c-.21 0-.434-.041-.644-.124a1.712 1.712 0 0 1-.98-2.236c.007-.013.014-.027.021-.048v-.007c.007-.007.007-.014.007-.014a1.752 1.752 0 0 1 2.275-.966 1.715 1.715 0 0 1 .98 2.236l-.028.07a1.755 1.755 0 0 1-1.631 1.09zm4.753-8.873c-.343 0-.679-.097-.98-.297a1.7 1.7 0 0 1-.434-2.442c.007-.007.007-.014.014-.028a1.77 1.77 0 0 1 2.422-.449 1.721 1.721 0 0 1 .469 2.402l-.042.055a1.741 1.741 0 0 1-1.449.759zm6.573-7.666c-.462 0-.924-.18-1.267-.531a1.705 1.705 0 0 1 .056-2.436l.021-.02c.014-.015.035-.028.049-.042.336-.31.763-.47 1.197-.47.462 0 .924.18 1.267.539.665.69.637 1.78-.063 2.436l-.056.048c-.336.324-.77.476-1.204.476zm8.085-6.1a1.747 1.747 0 0 1-1.498-.835 1.704 1.704 0 0 1 .581-2.366c.014-.007.021-.007.028-.014.014-.007.028-.014.035-.02 0 0 .007 0 .007-.008a1.78 1.78 0 0 1 .903-.248c.595 0 1.169.297 1.498.835.504.814.238 1.87-.588 2.367l-.063.034c-.28.173-.595.255-.903.255zm9.212-4.257a1.754 1.754 0 0 1-1.659-1.166 1.725 1.725 0 0 1 1.078-2.187c.028-.007.049-.014.07-.021.007-.007.014-.007.014-.007.189-.062.378-.097.567-.097a1.76 1.76 0 0 1 1.659 1.173 1.725 1.725 0 0 1-1.092 2.188l-.07.02a1.634 1.634 0 0 1-.567.097zm9.926-2.201a1.745 1.745 0 0 1-1.736-1.532A1.732 1.732 0 0 1 43.589.36c.028-.007.049-.007.07-.014h.014c.07-.007.133-.007.203-.007.875 0 1.631.649 1.736 1.532.105.945-.588 1.8-1.547 1.904l-.07.007c-.07.007-.133.014-.203.014zm10.262-.062c-.056 0-.112 0-.175-.007l-.07-.007c-.959-.097-1.666-.945-1.568-1.89A1.737 1.737 0 0 1 53.977.275c.056 0 .112 0 .168.007.014 0 .028.007.049.007.014 0 .028 0 .042.007.959.09 1.659.938 1.561 1.883-.091.89-.854 1.553-1.743 1.553zm9.961 2.084c-.182 0-.371-.028-.546-.083l-.07-.02a1.727 1.727 0 0 1-1.12-2.181 1.75 1.75 0 0 1 1.659-1.187c.182 0 .364.028.546.083 0 0 .007 0 .007.007h.021c.021.007.042.013.056.02a1.717 1.717 0 0 1 1.106 2.174 1.744 1.744 0 0 1-1.659 1.187zm9.261 4.147c-.301 0-.609-.076-.889-.242l-.056-.034a1.71 1.71 0 0 1-.623-2.36 1.76 1.76 0 0 1 1.512-.849c.301 0 .609.076.889.235l.021.02c.021.007.035.014.049.021a1.715 1.715 0 0 1 .609 2.36 1.76 1.76 0 0 1-1.512.849zm8.162 6.01c-.427 0-.861-.152-1.197-.463l-.049-.048a1.706 1.706 0 0 1-.091-2.436 1.753 1.753 0 0 1 1.281-.552 1.745 1.745 0 0 1 1.197.47.303.303 0 0 0 .049.04c.707.65.749 1.74.091 2.436-.35.366-.812.552-1.281.552zm6.664 7.583a1.763 1.763 0 0 1-1.442-.739l-.042-.062a1.718 1.718 0 0 1 .441-2.401 1.774 1.774 0 0 1 1.001-.304 1.75 1.75 0 0 1 1.442.746c0 .006.007.013.014.02.007.014.014.021.021.035.553.78.357 1.856-.441 2.401a1.752 1.752 0 0 1-.994.304zm4.858 8.818a1.769 1.769 0 0 1-1.624-1.07l-.021-.069a1.71 1.71 0 0 1 .952-2.25A1.755 1.755 0 0 1 94.577 30a1.714 1.714 0 0 1-.952 2.244 1.73 1.73 0 0 1-.665.13zm2.807 9.64c-.84 0-1.582-.594-1.729-1.436l-.007-.07c-.168-.938.469-1.828 1.421-1.993.105-.014.203-.02.301-.02.833 0 1.575.586 1.722 1.42a.398.398 0 0 1 .014.09 1.717 1.717 0 0 1-1.428 1.98c-.098.021-.196.028-.294.028zm.637 10.018h-.084c-.966-.048-1.715-.856-1.666-1.801v-.076c.042-.925.819-1.649 1.75-1.649h.077c.959.041 1.708.842 1.673 1.787 0 .014-.007.02-.007.035v.069a1.74 1.74 0 0 1-1.743 1.635zm-1.554 9.915c-.154 0-.301-.02-.455-.062-.931-.248-1.491-1.194-1.239-2.111l.021-.07a1.749 1.749 0 0 1 2.142-1.22 1.72 1.72 0 0 1 1.239 2.104l-.021.069v.007a1.749 1.749 0 0 1-1.687 1.283zm-3.696 9.343c-.273 0-.546-.062-.805-.193a1.722 1.722 0 0 1-.749-2.333l.035-.062a1.763 1.763 0 0 1 2.359-.731c.854.435 1.19 1.47.756 2.311a.627.627 0 0 0-.049.097c-.315.58-.924.91-1.547.91zm-5.656 8.342c-.392 0-.791-.131-1.12-.4a1.703 1.703 0 0 1-.217-2.43l.042-.054a1.775 1.775 0 0 1 2.471-.221c.742.614.84 1.697.217 2.429-.007.014-.014.02-.021.034l-.035.035c-.343.4-.84.607-1.337.607zm-7.329 6.962a1.77 1.77 0 0 1-1.386-.662 1.714 1.714 0 0 1 .315-2.422l.056-.049a1.754 1.754 0 0 1 1.071-.358c.525 0 1.036.227 1.386.669a1.708 1.708 0 0 1-.308 2.415s-.007.007-.014.007l-.014.014a.185.185 0 0 0-.042.034 1.756 1.756 0 0 1-1.064.352zm-8.673 5.258a1.754 1.754 0 0 1-1.582-.98 1.723 1.723 0 0 1 .833-2.305l.063-.027c.245-.117.497-.166.749-.166.658 0 1.288.359 1.582.98.42.856.056 1.877-.812 2.29-.014.008-.021.015-.035.021a.344.344 0 0 1-.049.021 1.79 1.79 0 0 1-.749.166zm-9.611 3.298a1.75 1.75 0 0 1-1.708-1.339c-.217-.924.371-1.856 1.316-2.07l.07-.013c.133-.028.266-.042.392-.042a1.75 1.75 0 0 1 1.708 1.332 1.725 1.725 0 0 1-1.309 2.07c-.021.007-.035.007-.056.014-.007 0-.021.007-.028.007a1.877 1.877 0 0 1-.385.041z" fill="#2D2729"/></svg>