<svg xmlns="http://www.w3.org/2000/svg" width="67" height="67" viewBox="0 0 67 67"><path d="M33.915 67.2h-.077a1.75 1.75 0 0 1 .007-3.5h.07a1.75 1.75 0 0 1 .007 3.5h-.007zm-9.849-1.568c-.182 0-.371-.028-.553-.091-.014-.007-.028-.007-.042-.014-.007 0-.014-.007-.021-.007h-.007a1.756 1.756 0 0 1-1.113-2.212 1.76 1.76 0 0 1 1.666-1.204c.182 0 .364.028.546.091l.07.021a1.753 1.753 0 0 1-.546 3.416zm-8.862-4.585c-.364 0-.728-.112-1.043-.35-.007 0-.007 0-.014-.007s-.014-.014-.021-.014a1.753 1.753 0 0 1-.392-2.471c.35-.462.875-.707 1.414-.707.357 0 .728.112 1.036.35l.056.035a1.755 1.755 0 0 1-1.036 3.164zm-7-7.126a1.722 1.722 0 0 1-1.421-.735l-.007-.007c-.014-.021-.028-.035-.035-.049 0-.007-.007-.007-.007-.007a1.742 1.742 0 0 1 .42-2.436 1.677 1.677 0 0 1 1.008-.322c.546 0 1.092.252 1.428.735l.042.056a1.75 1.75 0 0 1-1.428 2.765zm-4.431-8.939a1.758 1.758 0 0 1-1.666-1.225c0-.014-.007-.021-.007-.035-.007-.007-.007-.014-.007-.028h-.007v-.021a1.74 1.74 0 0 1 1.666-2.261c.749 0 1.442.483 1.673 1.232l.021.07a1.744 1.744 0 0 1-1.155 2.184 1.638 1.638 0 0 1-.518.084zm-1.407-9.884h-.028A1.75 1.75 0 0 1 .616 33.32v-.021-.07a1.751 1.751 0 0 1 1.75-1.708h.028a1.761 1.761 0 0 1 1.722 1.785v.07a1.754 1.754 0 0 1-1.75 1.722zm1.715-9.835c-.189 0-.378-.028-.567-.098a1.743 1.743 0 0 1-1.085-2.219c0-.007.007-.014.007-.014.007-.028.014-.049.021-.07a1.756 1.756 0 0 1 1.652-1.169 1.753 1.753 0 0 1 1.652 2.324l-.021.07a1.758 1.758 0 0 1-1.659 1.176zm4.711-8.799a1.748 1.748 0 0 1-1.358-2.856l.014-.014a1.743 1.743 0 0 1 1.386-.686c.371 0 .742.112 1.064.357.763.588.917 1.687.329 2.457l-.042.049a1.743 1.743 0 0 1-1.393.693zm7.217-6.902c-.56 0-1.106-.266-1.442-.756a1.743 1.743 0 0 1 .441-2.429l.077-.056a1.752 1.752 0 0 1 2.422.455c.546.798.343 1.89-.448 2.436l-.056.042a1.75 1.75 0 0 1-.994.308zm8.995-4.305a1.75 1.75 0 0 1-1.68-1.253 1.744 1.744 0 0 1 1.183-2.17 1.68 1.68 0 0 1 .567-.098 1.75 1.75 0 0 1 1.68 1.26 1.742 1.742 0 0 1-1.19 2.17l-.063.021a1.74 1.74 0 0 1-.497.07zm9.975-1.26h-.056-.07a1.751 1.751 0 0 1 .049-3.5h.14a1.75 1.75 0 0 1-.063 3.5zm9.793 1.904c-.203 0-.406-.035-.602-.105l-.063-.028a1.75 1.75 0 0 1 .595-3.395c.203 0 .406.035.602.112.007 0 .021.007.028.007.021.007.035.014.049.021a1.749 1.749 0 0 1-.609 3.388zm8.701 4.879c-.378 0-.763-.119-1.085-.378l-.056-.042a1.748 1.748 0 0 1-.287-2.457 1.726 1.726 0 0 1 1.372-.665c.378 0 .763.119 1.085.378l.007.007a1.74 1.74 0 0 1 .336 2.492 1.726 1.726 0 0 1-1.372.665zm6.755 7.357a1.75 1.75 0 0 1-1.456-.784l-.042-.056a1.756 1.756 0 0 1 1.456-2.723c.567 0 1.12.273 1.456.77a.64.64 0 0 0 .056.091 1.748 1.748 0 0 1-.504 2.408c-.294.196-.63.294-.966.294zm4.13 9.086a1.76 1.76 0 0 1-1.694-1.295l-.014-.063a1.752 1.752 0 0 1 1.687-2.219c.763 0 1.463.504 1.68 1.281l.021.063c0 .007 0 .014.007.021a1.754 1.754 0 0 1-1.687 2.212zm1.078 9.926c-.028 0-.056-.007-.084-.007a1.753 1.753 0 0 1-1.666-1.834l.007-.063a1.753 1.753 0 0 1 1.743-1.673h.084a1.757 1.757 0 0 1 1.666 1.834v.007c0 .028 0 .056-.007.084a1.744 1.744 0 0 1-1.743 1.652zm-2.044 9.765c-.21 0-.42-.035-.63-.119a1.751 1.751 0 0 1-1.008-2.261l.021-.063c.273-.7.938-1.127 1.638-1.127.21 0 .42.035.623.119a1.738 1.738 0 0 1 1.015 2.24.341.341 0 0 1-.028.077v.007a1.747 1.747 0 0 1-1.631 1.127zm-5.005 8.638c-.385 0-.777-.133-1.106-.392a1.754 1.754 0 0 1-.252-2.464l.042-.056c.35-.427.854-.644 1.365-.644.385 0 .777.126 1.099.385.749.609.868 1.701.266 2.457-.021.021-.035.042-.056.063a1.737 1.737 0 0 1-1.358.651zm-7.441 6.657a1.753 1.753 0 0 1-.945-3.227l.056-.035a1.752 1.752 0 0 1 2.422.518c.525.812.294 1.89-.518 2.415-.021.021-.049.035-.07.049-.294.189-.623.28-.945.28zm-9.142 3.997a1.745 1.745 0 0 1-1.687-1.316 1.74 1.74 0 0 1 1.253-2.128l.07-.021c.147-.035.294-.056.441-.056a1.76 1.76 0 0 1 1.694 1.309 1.752 1.752 0 0 1-1.253 2.135s-.014 0-.014.007c-.014 0-.028.007-.042.007-.007 0-.014.007-.021.007a1.904 1.904 0 0 1-.441.056z" fill="#2D2729"/></svg>