<svg xmlns="http://www.w3.org/2000/svg" width="120" height="121" viewBox="0 0 120 121"><path d="M59.63 121.8h-.09c-.945-.007-1.711-.791-1.711-1.75.007-.966.78-1.75 1.732-1.75h.069c.952 0 1.725.784 1.725 1.75s-.773 1.75-1.725 1.75zm-10.067-.903c-.097 0-.2-.007-.304-.028-.007 0-.02 0-.028-.007-.013 0-.034 0-.048-.007-.938-.168-1.56-1.078-1.394-2.03a1.74 1.74 0 0 1 1.698-1.442c.103 0 .207.007.31.028l.07.014c.938.168 1.559 1.078 1.393 2.03a1.735 1.735 0 0 1-1.697 1.442zm-9.75-2.702c-.2 0-.4-.035-.6-.105 0-.007 0-.007-.007-.007l-.062-.021c-.89-.336-1.346-1.344-1.015-2.254a1.733 1.733 0 0 1 2.222-1.029l.07.028c.89.336 1.345 1.344 1.013 2.254a1.733 1.733 0 0 1-1.621 1.134zm-9.115-4.41c-.297 0-.6-.084-.87-.245l-.04-.021c-.015-.007-.021-.014-.035-.021a1.762 1.762 0 0 1-.607-2.394 1.724 1.724 0 0 1 1.49-.861c.297 0 .6.077.876.245l.062.035a1.77 1.77 0 0 1 .608 2.401 1.722 1.722 0 0 1-1.484.861zM22.48 107.8c-.4 0-.8-.14-1.125-.42l-.027-.028c-.007 0-.014-.007-.02-.014 0-.007-.008-.007-.008-.007a1.77 1.77 0 0 1-.18-2.471 1.712 1.712 0 0 1 1.305-.609c.4 0 .8.14 1.125.427l.055.049c.724.63.807 1.736.186 2.464a1.713 1.713 0 0 1-1.31.609zm-7.059-7.336c-.496 0-.986-.217-1.331-.637-.02-.021-.035-.042-.055-.063-.6-.749-.49-1.855.241-2.464.324-.266.71-.399 1.097-.399.497 0 .994.224 1.332.644l.048.056c.6.749.497 1.855-.241 2.464a1.72 1.72 0 0 1-1.09.399zm-5.706-8.477c-.6 0-1.187-.322-1.504-.889-.007-.007-.007-.014-.014-.021-.007-.014-.014-.035-.027-.049-.463-.847-.166-1.911.662-2.38.27-.154.559-.224.842-.224.607 0 1.193.322 1.51.896l.035.063c.463.84.173 1.911-.662 2.38a1.651 1.651 0 0 1-.842.224zm-4.167-9.345c-.711 0-1.38-.448-1.629-1.169l-.02-.063c0-.007 0-.007-.007-.014a1.756 1.756 0 0 1 1.062-2.226 1.72 1.72 0 0 1 2.194 1.071l.028.07a1.757 1.757 0 0 1-1.056 2.233 1.67 1.67 0 0 1-.572.098zm-2.505-9.94a1.73 1.73 0 0 1-1.698-1.463c-.006-.014-.006-.021-.006-.035-.007-.014-.007-.028-.007-.049-.152-.952.483-1.848 1.421-2.002a1.73 1.73 0 0 1 1.98 1.442l.014.077a1.751 1.751 0 0 1-1.421 2.009 1.996 1.996 0 0 1-.283.021zm-.78-10.234H2.25c-.952-.007-1.71-.798-1.71-1.757 0-.021 0-.035.006-.056v-.021-.014a1.732 1.732 0 0 1 1.718-1.729h.02a1.75 1.75 0 0 1 1.712 1.771l-.007.07c-.007.959-.78 1.736-1.725 1.736zm.952-10.22c-.103 0-.207-.007-.31-.028a1.747 1.747 0 0 1-1.387-2.037c.007-.021.007-.042.014-.063v-.021a1.733 1.733 0 0 1 2.008-1.393 1.747 1.747 0 0 1 1.387 2.037l-.014.07a1.728 1.728 0 0 1-1.698 1.435zm2.67-9.891c-.2 0-.4-.035-.6-.112a1.763 1.763 0 0 1-1.02-2.233c.013-.035.027-.063.034-.098a1.725 1.725 0 0 1 2.215-1.022c.897.336 1.345 1.344 1.014 2.254l-.02.07a1.74 1.74 0 0 1-1.622 1.141zm4.327-9.275c-.297 0-.593-.077-.87-.238a1.763 1.763 0 0 1-.614-2.394c0-.007 0-.007.007-.014a1.715 1.715 0 0 1 2.387-.679 1.763 1.763 0 0 1 .615 2.394l-.035.063c-.317.56-.897.868-1.49.868zm5.851-8.372c-.4 0-.793-.133-1.118-.413a1.769 1.769 0 0 1-.2-2.464c.014-.021.035-.042.049-.063a1.724 1.724 0 0 1 1.317-.616c.394 0 .787.14 1.118.42.725.623.808 1.729.194 2.464l-.049.056a1.71 1.71 0 0 1-1.31.616zm7.19-7.217a1.7 1.7 0 0 1-1.332-.63 1.77 1.77 0 0 1 .228-2.464l.007-.007a.396.396 0 0 0 .055-.049c.324-.266.71-.392 1.097-.392.49 0 .987.21 1.325.63a1.77 1.77 0 0 1-.228 2.464l-.055.049c-.324.273-.71.399-1.097.399zm8.314-5.831c-.6 0-1.186-.315-1.504-.882-.469-.84-.18-1.904.642-2.38a.513.513 0 0 1 .083-.049 1.67 1.67 0 0 1 .842-.224c.6 0 1.18.322 1.497.889.47.84.18 1.904-.649 2.387l-.062.035c-.269.154-.559.224-.849.224zm9.191-4.249c-.71 0-1.373-.448-1.628-1.169-.31-.91.159-1.911 1.056-2.233h.006c.021-.007.042-.014.056-.021.007 0 .007 0 .013-.007.187-.063.38-.098.566-.098.718 0 1.38.455 1.629 1.176.317.91-.159 1.911-1.056 2.226l-.069.028a1.79 1.79 0 0 1-.573.098zm9.791-2.527a1.726 1.726 0 0 1-1.697-1.47c-.152-.952.483-1.848 1.421-2.002l.097-.021c.083-.007.172-.014.255-.014.835 0 1.567.609 1.705 1.47a1.748 1.748 0 0 1-1.436 2.009l-.069.007c-.09.014-.186.021-.276.021zm10.164-.721h-.034-.07a1.744 1.744 0 0 1-1.697-1.778A1.736 1.736 0 0 1 60.637.665h.111c.945.021 1.704.819 1.69 1.785-.02.952-.787 1.715-1.725 1.715zM70.76 5.264c-.11 0-.22-.014-.338-.035l-.069-.014a1.752 1.752 0 0 1-1.359-2.058 1.731 1.731 0 0 1 1.69-1.407c.111 0 .221.007.339.028.013.007.02.007.034.007.02.007.035.007.048.014.932.189 1.532 1.106 1.346 2.051a1.738 1.738 0 0 1-1.69 1.414zm9.695 2.884c-.214 0-.428-.035-.635-.119l-.062-.028c-.89-.35-1.325-1.372-.98-2.268a1.726 1.726 0 0 1 1.608-1.113c.207 0 .42.042.628.126h.007l.048.021c.007 0 .014 0 .014.007.89.35 1.325 1.365.98 2.268a1.737 1.737 0 0 1-1.608 1.106zm9.032 4.592c-.31 0-.62-.084-.904-.259l-.062-.042a1.762 1.762 0 0 1-.559-2.408c.324-.532.89-.833 1.47-.833.303 0 .607.084.89.259l.041.021c0 .007 0 .007.007.007.014.007.021.014.035.021a1.761 1.761 0 0 1 .552 2.401 1.71 1.71 0 0 1-1.47.833zm8.108 6.132c-.414 0-.822-.147-1.153-.441l-.055-.049a1.768 1.768 0 0 1-.138-2.471 1.731 1.731 0 0 1 1.29-.588c.407 0 .815.147 1.139.441.02.014.041.035.055.049a1.768 1.768 0 0 1 .145 2.478 1.71 1.71 0 0 1-1.283.581zm6.927 7.476c-.51 0-1.014-.231-1.352-.665l-.049-.056a1.78 1.78 0 0 1 .283-2.464 1.715 1.715 0 0 1 1.07-.371c.51 0 1.014.224 1.352.658.021.021.035.049.055.07a1.763 1.763 0 0 1-.29 2.45 1.723 1.723 0 0 1-1.069.378zm5.548 8.575a1.711 1.711 0 0 1-1.518-.917l-.035-.063a1.763 1.763 0 0 1 .697-2.373c.262-.14.538-.21.821-.21.607 0 1.2.329 1.511.91.007.007.007.014.014.021.007.014.014.035.02.049l.008.007a1.767 1.767 0 0 1-.704 2.373c-.255.14-.538.203-.814.203zm3.995 9.429c-.725 0-1.4-.469-1.642-1.204l-.021-.07a1.762 1.762 0 0 1 1.097-2.212c.18-.056.366-.091.545-.091.718 0 1.394.469 1.635 1.204l.021.07a1.753 1.753 0 0 1-1.097 2.212 1.61 1.61 0 0 1-.538.091zm2.318 9.982a1.73 1.73 0 0 1-1.704-1.498l-.014-.07c-.138-.959.518-1.848 1.456-1.988.09-.014.173-.014.255-.014.842 0 1.574.616 1.705 1.484 0 .021.007.035.007.056 0 .007 0 .021.006.028a1.75 1.75 0 0 1-1.462 1.988 2.954 2.954 0 0 1-.249.014zm.594 10.248h-.042c-.952-.021-1.704-.826-1.683-1.792l.007-.077a1.727 1.727 0 0 1 1.725-1.701h.041c.952.021 1.704.826 1.677 1.792v.077a1.732 1.732 0 0 1-1.725 1.701zm-1.132 10.199c-.11 0-.228-.007-.338-.035-.938-.189-1.539-1.113-1.352-2.058l.013-.07a1.731 1.731 0 0 1 1.69-1.407 1.742 1.742 0 0 1 1.69 2.093l.001.007c-.007.014-.007.028-.007.042-.006.007-.006.014-.006.028a1.732 1.732 0 0 1-1.69 1.4zm-2.857 9.842c-.207 0-.42-.035-.627-.119a1.754 1.754 0 0 1-.973-2.268l.02-.07a1.736 1.736 0 0 1 1.608-1.113c.214 0 .421.042.628.119a1.76 1.76 0 0 1 .98 2.268c0 .007 0 .014-.007.014v.007c-.007.014-.007.021-.014.028 0 .014-.007.021-.007.035a1.723 1.723 0 0 1-1.607 1.099zm-4.491 9.191c-.31 0-.621-.084-.897-.259a1.767 1.767 0 0 1-.58-2.401l.041-.063c.325-.546.89-.84 1.477-.84.304 0 .614.084.89.252a1.766 1.766 0 0 1 .587 2.394l-.021.042c-.014.007-.02.021-.028.035-.324.539-.89.84-1.47.84zm-6.003 8.26c-.4 0-.808-.147-1.139-.441a1.766 1.766 0 0 1-.152-2.464l.049-.056a1.707 1.707 0 0 1 2.435-.161c.711.637.78 1.743.152 2.471-.014.021-.034.035-.048.056a1.707 1.707 0 0 1-1.297.595zm-7.314 7.077c-.511 0-1.008-.224-1.353-.658a1.765 1.765 0 0 1 .276-2.457l.055-.049a1.702 1.702 0 0 1 2.422.273 1.767 1.767 0 0 1-.255 2.45c-.028.021-.048.042-.069.056a1.722 1.722 0 0 1-1.076.385zm-8.425 5.67c-.608 0-1.2-.329-1.511-.91a1.763 1.763 0 0 1 .69-2.373l.062-.035c.262-.147.545-.217.82-.217.615 0 1.208.329 1.519.917a1.764 1.764 0 0 1-.69 2.373c-.007.007-.02.007-.035.014v.007a1.675 1.675 0 0 1-.856.224zm-9.274 4.074a1.723 1.723 0 0 1-1.635-1.197c-.297-.917.193-1.911 1.097-2.212l.069-.021a1.61 1.61 0 0 1 .538-.091c.725 0 1.4.462 1.642 1.197.297.917-.193 1.911-1.097 2.212-.007.007-.014.007-.027.007v.007c-.007 0-.014 0-.028.007-.007 0-.007 0-.014.007-.18.056-.366.084-.545.084zm-9.84 2.338c-.841 0-1.58-.63-1.704-1.505a1.753 1.753 0 0 1 1.47-1.981l.07-.007c.082-.014.165-.021.24-.021.85 0 1.588.63 1.712 1.505.13.952-.518 1.834-1.456 1.974l-.104.021a2.484 2.484 0 0 1-.227.014z" fill="#2D2729"/></svg>