<svg xmlns="http://www.w3.org/2000/svg" width="110" height="110" viewBox="0 0 110 110"><path d="M55 110h-.09-.02a2.5 2.5 0 0 1-2.5-2.5c.01-1.38 1.13-2.5 2.51-2.5h.1a2.5 2.5 0 0 1 0 5zm-14.24-1.95c-.22 0-.45-.03-.67-.09-.04-.02-.09-.03-.14-.04a2.492 2.492 0 0 1-1.7-3.08c.31-1.1 1.31-1.82 2.4-1.82.23 0 .46.03.68.09l.1.03c1.33.37 2.1 1.75 1.73 3.08a2.494 2.494 0 0 1-2.4 1.83zm-13.18-5.77c-.44 0-.88-.11-1.29-.36-.04-.02-.08-.05-.12-.07a2.495 2.495 0 0 1-.8-3.43 2.503 2.503 0 0 1 3.44-.82l.08.05c1.18.73 1.55 2.27.82 3.44-.47.77-1.29 1.19-2.13 1.19zm-11.11-9.12c-.67 0-1.34-.27-1.84-.8 0-.01-.01-.02-.02-.03-.02-.02-.04-.04-.06-.07-.93-1.01-.86-2.58.15-3.51.48-.45 1.09-.67 1.7-.67.67 0 1.34.27 1.83.81l.07.07a2.5 2.5 0 0 1-1.83 4.2zM8.23 81.38c-.9 0-1.77-.5-2.22-1.35 0-.01-.01-.03-.02-.04-.01-.01-.01-.03-.02-.04-.01-.02-.02-.03-.03-.05a2.508 2.508 0 0 1 2.24-3.62c.91 0 1.79.5 2.23 1.37l.04.09a2.5 2.5 0 0 1-2.22 3.64zM3.5 67.8c-1.16 0-2.2-.82-2.44-2a.507.507 0 0 1-.02-.13 2.493 2.493 0 0 1 2.45-2.98c1.17 0 2.22.83 2.45 2.02l.02.1c.27 1.35-.61 2.67-1.97 2.94-.16.03-.32.05-.49.05zm-.85-14.36c-.06 0-.12 0-.19-.01-1.38-.1-2.4-1.31-2.3-2.68v-.02c.01-.04.01-.07.01-.11.11-1.3 1.2-2.29 2.49-2.29.06 0 .13.01.2.01 1.37.11 2.4 1.31 2.3 2.69l-.01.1c-.1 1.31-1.2 2.31-2.5 2.31zM5.7 39.39c-.28 0-.57-.05-.86-.15a2.505 2.505 0 0 1-1.48-3.21c0-.01.01-.02.01-.04.01-.02.02-.05.03-.08.38-1 1.33-1.62 2.34-1.62a2.51 2.51 0 0 1 2.35 3.37l-.04.09a2.505 2.505 0 0 1-2.35 1.64zm6.77-12.68c-.51 0-1.02-.16-1.47-.48a2.504 2.504 0 0 1-.55-3.49c.01-.01.02-.03.03-.04 0-.01.01-.01.01-.02.01-.01.02-.02.02-.03a2.506 2.506 0 0 1 3.5-.55c1.11.81 1.36 2.38.55 3.49l-.06.09a2.52 2.52 0 0 1-2.03 1.03zm9.96-10.39a2.492 2.492 0 0 1-1.57-4.44c.02-.02.04-.03.06-.05.01-.01.02-.01.03-.02 0-.01.01-.01.01-.02.46-.36 1.01-.53 1.55-.53.74 0 1.47.32 1.96.95.85 1.08.67 2.66-.41 3.51l-.08.06c-.46.37-1.01.54-1.55.54zm12.38-7.3a2.5 2.5 0 0 1-.96-4.81h.02c0-.01 0-.01.01-.01s.03-.01.04-.02c.02 0 .03-.01.05-.01.3-.13.62-.19.94-.19.98 0 1.91.58 2.31 1.54.52 1.28-.08 2.74-1.35 3.27l-.1.04c-.31.13-.64.19-.96.19zm13.9-3.65c-1.25 0-2.33-.93-2.48-2.2-.16-1.37.81-2.61 2.17-2.78h.05c.02-.01.05-.01.08-.01.1-.01.19-.02.29-.02 1.25 0 2.33.93 2.48 2.21.16 1.37-.82 2.61-2.19 2.77l-.1.01c-.1.02-.2.02-.3.02zm14.49.27c-.13 0-.26-.01-.39-.03l-.09-.02a2.497 2.497 0 0 1-2.09-2.85A2.49 2.49 0 0 1 63.48.65c.02 0 .04.01.05.01.02 0 .04 0 .06.01a2.49 2.49 0 0 1 2.08 2.85 2.501 2.501 0 0 1-2.47 2.12zM76.96 9.8c-.35 0-.71-.08-1.05-.23l-.09-.04a2.518 2.518 0 0 1-1.23-3.32c.42-.92 1.33-1.46 2.27-1.46.35 0 .71.08 1.05.23.01.01.03.02.05.02.02.02.03.02.06.03 1.24.58 1.79 2.06 1.21 3.31-.42.92-1.33 1.46-2.27 1.46zm12.11 7.75c-.58 0-1.16-.2-1.63-.6l-.07-.06a2.513 2.513 0 0 1-.29-3.53c.5-.58 1.2-.88 1.91-.88.56 0 1.13.2 1.6.59.03.02.05.04.08.06.01.01.01.02.02.02 1.05.9 1.18 2.47.28 3.52-.49.58-1.2.88-1.9.88zm9.57 10.74c-.81 0-1.6-.39-2.08-1.1l-.06-.09c-.77-1.14-.47-2.7.68-3.47.43-.29.91-.43 1.39-.43.8 0 1.58.38 2.06 1.09.02.03.04.05.06.08 0 .01.01.02.02.03.77 1.15.46 2.7-.68 3.47-.43.28-.92.42-1.39.42zm6.29 12.93c-1.06 0-2.04-.67-2.38-1.73l-.03-.09c-.43-1.32.28-2.73 1.6-3.16.26-.08.52-.12.78-.12 1.04 0 2.01.66 2.36 1.7.01.02.02.05.03.08 0 .01.01.02.01.03 0 .01 0 .01.01.02.42 1.31-.3 2.72-1.61 3.14-.25.09-.52.13-.77.13zm2.53 14.15c-1.34 0-2.45-1.06-2.5-2.4v-.1a2.488 2.488 0 0 1 2.39-2.6c.04-.01.07-.01.11-.01 1.33 0 2.44 1.05 2.49 2.4v.04c0 .03.01.06.01.08a2.514 2.514 0 0 1-2.4 2.59h-.1zm-1.38 14.32c-.19 0-.38-.03-.58-.07a2.5 2.5 0 0 1-1.85-3.01l.02-.1c.27-1.15 1.3-1.93 2.43-1.93.19 0 .39.03.58.07 1.34.32 2.17 1.65 1.86 2.98-.01.04-.02.08-.02.11-.01.01-.01.02-.01.02a2.505 2.505 0 0 1-2.43 1.93zm-5.22 13.39c-.41 0-.83-.1-1.22-.32-1.2-.67-1.64-2.2-.96-3.4l.05-.09c.45-.82 1.31-1.28 2.18-1.28.42 0 .83.1 1.22.31 1.2.67 1.64 2.19.97 3.39 0 .01-.01.01-.01.02a.21.21 0 0 1-.04.06c0 .02-.01.03-.02.04-.46.81-1.3 1.27-2.17 1.27zm-8.67 11.47c-.63 0-1.27-.24-1.76-.72-.98-.98-.98-2.56-.01-3.54l.07-.07c.49-.49 1.13-.74 1.78-.74a2.499 2.499 0 0 1 1.79 4.24l-.11.11c-.49.48-1.12.72-1.76.72zm-11.44 8.71c-.87 0-1.72-.45-2.18-1.27-.68-1.2-.25-2.73.95-3.4l.09-.05c.39-.22.81-.33 1.23-.33.87 0 1.72.46 2.18 1.27.67 1.2.26 2.71-.93 3.4l-.06.03c-.01 0-.02.01-.03.02-.01 0-.02.01-.04.02-.38.21-.8.31-1.21.31zm-13.38 5.27c-1.12 0-2.15-.76-2.42-1.91-.33-1.34.5-2.69 1.84-3.02l.1-.02a2.506 2.506 0 0 1 3.02 1.84c.32 1.34-.49 2.68-1.83 3.01-.02.01-.04.02-.07.02-.01.01-.03.01-.05.01-.19.05-.39.07-.59.07z" fill="#2D2728"/></svg>