<svg xmlns="http://www.w3.org/2000/svg" width="84" height="83" viewBox="0 0 84 83"><path d="M42.014 82.8h-.075a1.726 1.726 0 0 1-1.726-1.725 1.736 1.736 0 0 1 1.732-1.725h.07a1.726 1.726 0 0 1 0 3.45zm-9.888-1.235c-.144 0-.29-.02-.427-.055h-.021c-.007-.007-.02-.007-.028-.014-.007 0-.02 0-.027-.007a1.721 1.721 0 0 1-1.242-2.098 1.728 1.728 0 0 1 2.097-1.242l.07.021a1.726 1.726 0 0 1 1.248 2.098c-.2.78-.904 1.297-1.67 1.297zM22.853 77.9c-.276 0-.56-.062-.821-.207l-.083-.041a1.729 1.729 0 0 1 1.677-3.023l.062.035a1.725 1.725 0 0 1 .676 2.346c-.31.573-.904.89-1.511.89zm-8.066-5.851c-.421 0-.849-.152-1.18-.47-.014-.006-.028-.02-.042-.034l-.02-.02a1.72 1.72 0 0 1-.07-2.43c.339-.365.801-.545 1.257-.545.427 0 .848.152 1.18.47l.055.048c.697.649.731 1.739.076 2.436a1.695 1.695 0 0 1-1.256.545zm-6.369-7.666a1.719 1.719 0 0 1-1.449-.794l-.048-.069a1.721 1.721 0 0 1 .531-2.38c.29-.186.607-.27.925-.27.572 0 1.131.284 1.456.801l.04.055a1.73 1.73 0 0 1-1.455 2.657zm-4.257-9.012a1.72 1.72 0 0 1-1.636-1.18c-.006-.013-.013-.027-.013-.04-.007-.015-.014-.028-.014-.042a1.723 1.723 0 0 1 1.642-2.257c.725 0 1.4.463 1.642 1.194l.02.07a1.734 1.734 0 0 1-1.11 2.173c-.18.055-.359.082-.531.082zm-1.863-9.784A1.72 1.72 0 0 1 .58 43.981c-.007-.035-.007-.07-.007-.104a1.713 1.713 0 0 1 1.614-1.808c.035-.007.07-.007.104-.007.91 0 1.67.704 1.725 1.622l.007.069A1.729 1.729 0 0 1 2.4 45.58c-.034.007-.069.007-.103.007zm.62-9.95c-.103 0-.213-.013-.324-.034a1.717 1.717 0 0 1-1.366-2.008c0-.02.007-.034.007-.055 0-.007.007-.02.007-.028a1.72 1.72 0 0 1 1.69-1.4c.104 0 .214.013.325.034A1.727 1.727 0 0 1 4.63 34.17l-.014.062a1.733 1.733 0 0 1-1.697 1.407zm3.085-9.473c-.248 0-.497-.055-.731-.166a1.718 1.718 0 0 1-.808-2.325v-.007c.007-.014.014-.02.014-.035a1.733 1.733 0 0 1 1.56-.986c.248 0 .503.055.738.172a1.724 1.724 0 0 1 .82 2.298l-.027.062a1.736 1.736 0 0 1-1.566.987zm5.361-8.404c-.386 0-.78-.132-1.104-.394a1.727 1.727 0 0 1-.172-2.484v-.007a1.739 1.739 0 0 1 1.325-.62c.393 0 .78.13 1.104.4.731.614.835 1.697.22 2.428l-.041.056a1.72 1.72 0 0 1-1.332.62zm7.28-6.81a1.726 1.726 0 0 1-1.014-3.12c.02-.013.034-.027.055-.04.007 0 .007-.008.014-.015a1.742 1.742 0 0 1 1.007-.317 1.722 1.722 0 0 1 1.007 3.119l-.055.041a1.73 1.73 0 0 1-1.014.331zm8.742-4.796a1.725 1.725 0 0 1-.649-3.326c.007 0 .014-.007.028-.007.014-.007.035-.014.055-.02.207-.083.421-.125.628-.125a1.726 1.726 0 0 1 .635 3.333l-.069.027c-.207.076-.42.118-.628.118zM37.04 3.69a1.724 1.724 0 0 1-.214-3.436c.021 0 .035-.007.056-.007h.034c.062-.013.131-.013.2-.013a1.724 1.724 0 0 1 .207 3.436l-.069.007c-.076.014-.145.014-.214.014zm10.047.014c-.076 0-.145-.007-.221-.014l-.07-.006A1.735 1.735 0 0 1 45.3 1.753c.11-.87.848-1.511 1.71-1.511.07 0 .139.006.215.013.027.007.048.007.076.014a1.724 1.724 0 0 1-.214 3.436zm9.646 2.484c-.214 0-.428-.041-.635-.124l-.069-.02a1.727 1.727 0 1 1 .635-3.333c.214 0 .428.041.635.124h.007a.336.336 0 0 0 .048.02c.007 0 .007 0 .014.008a1.717 1.717 0 0 1 .966 2.235 1.727 1.727 0 0 1-1.601 1.09zm8.721 4.816c-.352 0-.703-.11-1.014-.33l-.055-.042a1.729 1.729 0 0 1-.38-2.408 1.709 1.709 0 0 1 2.401-.386c.028.013.049.034.076.048a1.728 1.728 0 0 1-1.028 3.118zm7.266 6.825a1.72 1.72 0 0 1-1.332-.621l-.041-.056a1.728 1.728 0 0 1 1.325-2.829c.497 0 .986.214 1.331.628v.007c.021.014.035.035.049.048a1.72 1.72 0 1 1-1.332 2.822zm5.34 8.418a1.728 1.728 0 0 1-1.559-.994l-.027-.062a1.724 1.724 0 0 1 3.112-1.484c.006.014.013.028.013.035a.336.336 0 0 1 .021.048 1.719 1.719 0 0 1-1.56 2.457zm3.064 9.48a1.72 1.72 0 0 1-1.69-1.407l-.014-.07a1.716 1.716 0 0 1 1.373-2.014c.11-.02.214-.035.324-.035.808 0 1.532.58 1.69 1.401 0 .014 0 .02.008.034v.028a1.717 1.717 0 0 1-1.366 2.029c-.11.02-.221.034-.325.034zm.607 9.95c-.04 0-.075 0-.117-.007a1.718 1.718 0 0 1-1.608-1.828v-.07a1.734 1.734 0 0 1 1.726-1.62c.034 0 .068.006.11.006.945.055 1.663.87 1.614 1.815-.006.02-.006.034-.006.055v.041a1.725 1.725 0 0 1-1.719 1.608zm-1.89 9.784c-.18 0-.359-.027-.538-.09a1.72 1.72 0 0 1-1.097-2.173l.02-.069a1.723 1.723 0 0 1 1.643-1.187 1.725 1.725 0 0 1 1.635 2.256v.014c-.007.007-.007.014-.014.028a.098.098 0 0 1-.014.041 1.72 1.72 0 0 1-1.635 1.18zm-4.278 8.998c-.318 0-.642-.09-.932-.276a1.719 1.719 0 0 1-.517-2.38l.034-.063a1.74 1.74 0 0 1 1.456-.793 1.724 1.724 0 0 1 1.456 2.65c-.007.013-.02.027-.027.04-.007.008-.014.014-.014.028a1.74 1.74 0 0 1-1.456.794zm-6.383 7.652c-.462 0-.924-.186-1.262-.545a1.731 1.731 0 0 1 .082-2.443l.049-.048a1.736 1.736 0 0 1 2.442.083 1.723 1.723 0 0 1-.082 2.435c0 .007-.007.007-.014.014l-.042.042c-.33.31-.752.462-1.173.462zm-8.086 5.837c-.608 0-1.201-.324-1.512-.897a1.734 1.734 0 0 1 .684-2.346l.062-.034c.262-.138.552-.207.828-.207a1.723 1.723 0 0 1 .842 3.23c-.014.006-.028.013-.049.027-.007.007-.014.007-.027.013a1.703 1.703 0 0 1-.828.214zm-9.274 3.637a1.716 1.716 0 0 1-1.67-1.298 1.726 1.726 0 0 1 1.25-2.097l.061-.02c.145-.035.29-.056.428-.056.773 0 1.477.524 1.677 1.304a1.726 1.726 0 0 1-1.25 2.098c-.013 0-.034.006-.047.006-.014.007-.021.007-.035.014a1.736 1.736 0 0 1-.414.049z" fill="#2D2729"/></svg>